<?xml version="1.0" encoding="utf-8"?>
<!-- Generator: Adobe Illustrator 27.5.0, SVG Export Plug-In . SVG Version: 6.00 Build 0)  -->
<svg version="1.1" xmlns="http://www.w3.org/2000/svg" xmlns:xlink="http://www.w3.org/1999/xlink" x="0px" y="0px"
	 viewBox="0 0 500 500" style="enable-background:new 0 0 500 500;" xml:space="preserve">
<g id="BACKGROUND">
	<rect y="0" style="fill-rule:evenodd;clip-rule:evenodd;fill:#FFFFFF;" width="500" height="500"/>
</g>
<g id="OBJECTS">
	<g>
		<path style="fill-rule:evenodd;clip-rule:evenodd;fill:#0F0B0D;" d="M238.621,25.359c-0.032,0.043-0.184,0.691-0.335,1.425
			c-0.702,3.336-1.209,4.998-2.915,9.651c-2.019,5.473-2.364,6.931-2.364,9.878c0,3.8,0.756,6.24,4.038,12.955
			c1.965,4.016,2.407,5.117,2.861,6.996c0.291,1.198,0.302,1.209,0.507,1.026c0.302-0.27,0.885-1.468,1.144-2.353
			c0.486-1.641,0.605-2.667,0.605-5.398c-0.011-3.994-0.507-7.859-1.986-15.492c-1.36-6.952-1.447-7.805-1.457-14.002
			c0-2.634-0.011-4.782-0.022-4.782C238.686,25.262,238.654,25.306,238.621,25.359z"/>
		<path style="fill-rule:evenodd;clip-rule:evenodd;fill:#0F0B0D;" d="M261.281,29.937c0,6.078-0.13,7.309-1.403,13.84
			c-1.533,7.827-2.03,11.735-2.04,15.762c0,2.731,0.13,3.908,0.605,5.452c0.27,0.853,0.853,2.04,1.144,2.299
			c0.205,0.184,0.216,0.173,0.507-1.026c0.453-1.878,0.896-2.98,2.861-6.996c3.282-6.715,4.038-9.155,4.038-12.955
			c0-2.947-0.345-4.405-2.364-9.878c-1.706-4.653-2.213-6.315-2.915-9.662c-0.151-0.745-0.313-1.382-0.356-1.425
			S261.281,27.367,261.281,29.937z"/>
		<path style="fill-rule:evenodd;clip-rule:evenodd;fill:#0F0B0D;" d="M239.258,27.378c-0.086,1.976-0.011,5.981,0.162,8.075
			c0.162,1.932,0.475,3.94,1.198,7.622c1.598,8.172,2.148,12.393,2.148,16.506c0,1.22-0.054,2.656-0.119,3.195
			c-0.27,2.181-0.95,4.027-1.878,5.096c-0.27,0.302-0.486,0.626-0.486,0.713c0,0.194-0.842,1.501-1.08,1.663
			c-0.108,0.076-0.356,0.389-0.551,0.702c-0.205,0.313-0.831,1.155-1.403,1.878c-2.818,3.541-4.761,6.823-6.585,11.076
			c-1.263,2.969-2.397,6.726-2.893,9.64c-0.108,0.648-0.227,1.112-0.259,1.026c-0.173-0.453-0.432-1.684-0.615-2.947
			c-0.184-1.285-0.194-1.9-0.14-7.298c0.065-6.283-0.065-10.99-0.345-13.279c-0.518-4.113-1.576-7.654-3.357-11.227
			c-1.716-3.455-3.509-5.894-8.075-11.022c-2.008-2.256-6.672-7.244-6.726-7.19c-0.022,0.022,0.324,0.982,0.756,2.127
			c0.799,2.073,1.155,3.131,2.667,7.87c1.76,5.517,3.174,8.539,6.693,14.25c1.9,3.088,2.85,4.761,3.541,6.294
			c1.738,3.854,3.455,10.914,3.746,15.459c0.043,0.594,0.14,1.349,0.216,1.673c0.076,0.324,0.173,0.961,0.205,1.403
			c0.043,0.443,0.162,1.339,0.281,1.997c0.108,0.648,0.259,1.868,0.324,2.699s0.13,1.781,0.162,2.105
			c0.032,0.324,0.108,2.677,0.162,5.236c0.054,2.548,0.184,5.603,0.281,6.769c0.097,1.177,0.151,2.181,0.13,2.245
			s-0.248-0.194-0.518-0.561c-1.22-1.706-4.135-4.307-6.326-5.646c-0.464-0.291-1.263-0.788-1.77-1.101
			c-0.507-0.324-2.181-1.209-3.724-1.976c-3.174-1.565-4.243-2.267-5.765-3.757c-0.691-0.68-1.317-1.177-1.997-1.576
			c-1.22-0.723-1.9-1.317-2.85-2.526c-1.835-2.332-3.401-5.02-4.739-8.118c-1.49-3.455-2.321-6.477-2.634-9.543
			c-0.194-1.954-0.065-6.434,0.281-9.727c0.345-3.314,0.475-8.151,0.281-10.277c-0.151-1.544-0.216-1.976-0.324-1.976
			c-0.313,0-0.486,0.399-0.885,2.04c-0.626,2.602-1.155,4.383-2.645,8.82c-2.127,6.369-2.483,8.064-2.386,11.487
			c0.043,1.263,0.13,2.299,0.238,2.807c0.648,2.936,1.9,5.452,4.016,8.097c0.885,1.112,3.347,3.584,4.901,4.934
			c2.872,2.483,7.568,5.981,11.001,8.172c0.443,0.281,0.713,0.486,0.594,0.443c-8.82-3.001-13.527-5.214-17.003-8.01
			c-2.721-2.181-5.657-5.657-7.881-9.317c-0.896-1.468-2.494-4.631-2.893-5.722c-0.572-1.576-0.734-4.415-0.453-8.205
			c0.184-2.483,0.151-6.272-0.054-7.827c-0.54-4.102-1.835-7.233-4.34-10.547c-2.505-3.314-5.409-6.251-10.126-10.234
			c-0.95-0.799-2.343-2.03-3.088-2.731c-1.198-1.101-1.609-1.414-1.609-1.209c0,0.022,0.389,0.713,0.864,1.511
			c1.695,2.872,2.062,3.638,3.962,8.151c2.407,5.743,3.455,7.503,7.319,12.307c1.641,2.04,2.353,3.098,3.077,4.534
			c1.63,3.249,2.969,8.399,3.228,12.447c0.086,1.339,0.194,1.922,0.864,4.631c1.457,5.894,2.245,8.345,3.573,11.044
			c2.818,5.754,7.33,10.008,17.241,16.301c5.754,3.649,7.557,4.912,9.694,6.758c3.422,2.98,5.355,5.668,6.423,8.95
			c1.857,5.678,1.306,11.195-1.684,17.176c-1.522,3.044-2.613,4.696-6.413,9.651c-2.278,2.98-3.336,4.448-4.405,6.1l-0.81,1.242
			l0.086-0.756c0.216-2.191,0.259-2.969,0.27-4.761c0-2.386,0.032-2.537,1.436-6.035c1.857-4.642,2.451-7.309,2.451-11.001
			c0-5.873-1.954-10.115-6.931-15.092c-0.756-0.756-3.12-2.893-5.236-4.75c-2.127-1.857-4.642-4.124-5.581-5.052
			c-0.95-0.918-1.673-1.598-1.63-1.511c0.184,0.324,3.422,5.322,5.527,8.529c3.314,5.052,4.782,7.686,6.089,10.958
			c2.159,5.441,3.681,12.156,3.703,16.355c0,1.555-0.022,1.803-0.41,3.509l-0.421,1.835l-0.011,4.156
			c-0.022,4.556-0.043,4.826-0.659,6.046c-0.443,0.885-1.371,3.239-2.105,5.344c-0.853,2.44-0.745,2.321-1.015,1.08
			c-1.285-5.851-3.984-10.331-12.048-20.026c-2.742-3.293-3.811-4.804-4.696-6.639c-1.015-2.105-1.339-3.444-1.425-5.938
			c-0.054-1.878-0.054-1.922,0.529-6.747c0.313-2.623,0.313-6.013,0-7.773c-0.453-2.515-1.112-4.351-2.72-7.611
			c-1.976-4.027-3.228-5.83-6.639-9.554c-2.699-2.958-5.322-5.376-7.902-7.309c-0.907-0.669-1.846-1.468-2.105-1.77
			c-0.27-0.324-1.069-0.972-1.922-1.565c-3.984-2.764-6.445-5.873-7.773-9.835c-0.799-2.397-1.09-4.178-1.349-8.237
			c-0.248-3.908-0.432-5.117-1.101-7.341c-0.432-1.436-1.371-3.919-1.943-5.139c-0.507-1.08-0.529-0.972-0.367,1.684
			c0.162,2.515,0.043,4.405-0.54,8.788c-0.572,4.415-0.713,6.369-0.54,8.215c0.281,3.217,1.242,5.441,3.217,7.449
			c1.457,1.468,3.239,2.602,6.132,3.897c1.76,0.799,2.202,1.036,3.703,2.084c1.112,0.777,1.285,0.993,2.936,3.886
			c3.206,5.581,5.279,11.238,6.067,16.474c0.184,1.285,0.194,6.553,0,7.881c-0.216,1.555-0.788,5.063-0.842,5.225
			c-0.022,0.076-0.432-0.497-0.896-1.274c-1.242-2.051-1.727-2.699-3.249-4.275c-1.824-1.878-2.105-2.31-3.26-5.02
			c-1.231-2.882-2.375-4.728-3.962-6.391c-1.684-1.781-3.617-3.174-6.002-4.351c-2.893-1.425-5.139-2.127-9.662-3.034
			c-5.786-1.155-8.021-1.835-12.102-3.649c-1.468-0.648-1.965-0.734-2.148-0.389c-0.162,0.302,0.011,0.669,1.328,2.785
			c1.511,2.429,2.494,4.135,4.07,7.093c0.723,1.36,1.598,2.915,1.922,3.455c2.559,4.167,5.754,6.369,11.411,7.827
			c2.99,0.777,5.732,1.198,10.85,1.673c5.484,0.507,6.477,0.853,8.766,3.055c1.101,1.058,1.717,1.868,2.299,3.044l0.41,0.81
			l-0.13,1.522c-0.162,1.846-0.076,2.656,0.54,4.955c0.238,0.885,0.453,1.684,0.475,1.76c0.032,0.086-0.345-0.227-0.831-0.68
			c-3.023-2.807-7.859-4.728-13.581-5.387c-1.76-0.205-4.685-0.227-9.565-0.043c-6.661,0.227-10.321-0.259-13.484-1.803
			c-2.245-1.09-4.372-2.872-4.793-3.994c-0.518-1.382-0.583-2.084-0.605-7.071c-0.011-3.854-0.054-4.901-0.205-5.862
			c-0.497-3.131-1.501-5.193-4.038-8.248c-1.609-1.965-11.681-11.951-11.854-11.767c-0.032,0.022,0.669,1.155,1.565,2.494
			c2.915,4.405,4.944,7.892,7.352,12.642c2.008,3.973,2.699,5.603,4.847,11.465c0.723,1.976,1.717,4.567,2.213,5.754l0.907,2.181
			l0.756,0.713c0.41,0.399,1.814,1.911,3.12,3.368c3.282,3.66,4.394,4.685,6.888,6.326c2.31,1.522,4.189,2.418,9.932,4.707
			c4.372,1.749,5.862,2.397,8.097,3.519c6.564,3.282,10.439,6.639,14.283,12.393c0.95,1.425,2.289,3.573,2.289,3.671
			c0,0.032-0.184-0.086-0.399-0.259c-1.328-1.026-4.944-3.228-6.164-3.735c-1.555-0.648-4.21-1.382-11.033-3.034
			c-5.722-1.393-9.209-2.764-16.787-6.639c-4.459-2.278-6.251-3.055-8.744-3.778c-0.885-0.259-2.98-0.756-3.174-0.756
			c-0.022,0,0.659,0.486,1.533,1.069c3.152,2.138,4.955,3.617,8.572,7.05c2.796,2.634,3.584,3.314,4.869,4.167
			c1.857,1.241,3.541,2.03,5.614,2.602c1.749,0.497,3.001,0.669,5.311,0.734c1.77,0.043,2.602,0.011,5.236-0.238
			c3.303-0.313,4.189-0.313,5.84,0.011c3.077,0.583,5.668,1.641,9.058,3.692c1.08,0.659,1.49,0.972,1.781,1.371
			c0.745,1.004,3.001,4.027,4.534,6.046c4.901,6.456,6.564,10.321,7.881,18.299c0.356,2.192,0.475,3.444,0.648,6.834
			c0.227,4.567,0.918,8.475,2.256,12.706c2.256,7.201,5.268,12.717,11.173,20.512c1.188,1.576,2.548,3.368,3.023,3.994
			c2.019,2.677,3.671,5.517,4.804,8.28c1.328,3.271,2.375,7.114,2.656,9.878c0.076,0.669,0.065,0.734-0.119,0.734
			c-1.09-0.011-5.538-0.238-6.467-0.335c-0.648-0.065-1.986-0.248-2.969-0.41c-1.717-0.291-1.835-0.335-2.785-0.864
			c-2.58-1.457-4.631-3.519-5.538-5.581c-0.13-0.291-0.518-0.853-0.853-1.252c-2.58-3.077-4.977-7.643-7.158-13.635
			c-1.22-3.39-2.192-6.747-3.854-13.441c-0.583-2.343-1.209-4.75-1.403-5.344c-0.356-1.134-1.954-5.376-1.997-5.322
			c-0.011,0.022,0.022,0.594,0.065,1.274c0.173,2.31,0.119,6.467-0.119,9.878c-0.281,3.865-0.259,7.73,0.054,9.446
			c0.378,2.084,1.026,3.865,2.019,5.614c1.177,2.051,2.774,3.8,6.078,6.639c2.645,2.267,3.401,3.066,4.739,4.955
			c2.04,2.872,4.048,5.236,5.279,6.229c0.291,0.238,0.464,0.421,0.378,0.421c-0.302,0-3.53-0.777-4.966-1.188
			c-6.423-1.868-11.648-5.387-14.531-9.802c-0.756-1.155-1.619-2.98-2.17-4.588c-1.177-3.422-3.023-12.491-4.005-19.724
			c-0.497-3.671-0.507-3.973-0.119-6.855c0.82-6.24,0.799-6.035,0.982-9.5c0.065-1.188,0.302-4.059,0.54-6.369
			c0.583-5.819,0.691-7.579,0.615-10.364c-0.162-6.024-1.727-11.616-4.782-17.133c-0.766-1.371-0.896-1.447-0.907-0.518
			c0,0.486-0.41,3.93-0.918,7.719c-0.345,2.526-0.464,5.678-0.281,7.287c0.281,2.418,0.723,3.973,2.483,8.68
			c1.706,4.556,1.976,5.7,1.965,8.593c0,1.036-0.054,2.764-0.119,3.832c-0.108,1.835-0.41,4.923-0.497,5.009
			c-0.054,0.065-0.13-0.399-0.313-1.932c-1.004-8.367-3.152-15.135-6.618-20.846c-4.804-7.946-11.109-14.779-17.672-19.151
			c-6.013-4.005-12.253-6.942-22.023-10.364c-3.249-1.134-5.527-2.008-7.449-2.828c-3.012-1.306-7.417-3.649-7.956-4.243
			c-0.162-0.173-0.389-0.637-0.518-1.047c-0.669-2.159-0.766-4.513-0.432-10.018c0.648-10.59-0.367-15.47-4.167-20.047
			c-1.565-1.868-3.66-3.617-7.654-6.38c-1.004-0.702-2.256-1.565-2.774-1.932c-0.518-0.367-0.982-0.637-1.026-0.594
			s0.27,0.432,0.68,0.864c2.742,2.807,5.387,6.456,6.942,9.554c0.594,1.188,1.544,3.638,1.997,5.15
			c0.766,2.58,1.295,5.311,2.116,10.85c0.853,5.754,1.501,8.302,2.71,10.72c0.41,0.799,0.939,1.576,2.494,3.584
			c1.166,1.522,1.166,1.522,2.807,2.645c3.379,2.332,6.013,4.372,8.939,6.963c1.619,1.436,9.122,8.885,9.036,8.971
			c-0.022,0.032-0.453-0.238-0.95-0.594c-1.285-0.928-2.98-1.911-4.124-2.418c-0.551-0.238-1.09-0.507-1.209-0.615
			c-0.119-0.097-0.918-0.594-1.781-1.08c-0.864-0.497-2.807-1.673-4.318-2.623c-4.016-2.526-5.959-3.649-8.259-4.826
			c-5.495-2.796-9.748-3.832-14.984-3.627c-3.163,0.119-4.869,0.399-9.187,1.479c-4.243,1.058-5.031,1.188-7.946,1.263l-2.429,0.054
			l0.486,0.216c1.015,0.432,2.904,1.069,4.286,1.436c2.44,0.648,3.735,0.788,8.183,0.907c7.935,0.205,11.454,0.475,16.895,1.252
			c7.287,1.036,13.009,2.353,15.222,3.509c0.443,0.227,1.565,0.961,2.483,1.63s2.31,1.544,3.077,1.954
			c2.623,1.382,4.804,2.99,6.92,5.096c2.559,2.537,6.553,8.615,9.219,14.034c0.702,1.425,1.306,2.688,1.339,2.807
			c0.086,0.291-0.399-0.281-1.252-1.457c-3.908-5.398-6.542-8.14-9.705-10.105c-3.724-2.31-8.345-2.958-13.592-1.922
			c-1.285,0.259-2.677,0.702-7.395,2.364c-2.224,0.777-4.243,1.328-5.938,1.619c-1.198,0.205-3.714,0.259-5.614,0.14l-1.188-0.086
			l0.81,0.335c1.112,0.464,3.174,1.015,4.772,1.274c2.85,0.475,5.689,0.551,11.152,0.281c10.461-0.518,16.658,0.227,21.462,2.58
			c1.846,0.907,2.796,1.576,3.563,2.526c0.367,0.453,0.745,0.896,0.831,0.993c0.086,0.086,0.227,0.302,0.313,0.464
			c0.086,0.162,0.378,0.551,0.648,0.864c0.486,0.561,2.105,2.98,2.407,3.584c0.367,0.734,1.285,4.502,1.555,6.359l0.076,0.54
			l-0.453-0.378c-1.328-1.069-2.256-1.684-3.627-2.364c-1.717-0.853-3.26-1.393-5.042-1.749c-1.619-0.324-4.523-0.345-5.916-0.054
			c-1.911,0.41-3.984,1.241-6.272,2.515c-0.831,0.475-1.717,0.842-3.293,1.36c-3.552,1.188-5.517,1.522-6.261,1.069
			c-0.41-0.248-0.928-1.047-1.576-2.386c-0.853-1.76-2.192-3.617-3.325-4.621c-1.349-1.188-2.483-1.684-5.808-2.559
			c-2.537-0.659-3.314-0.928-4.696-1.63c-1.727-0.864-2.958-1.749-4.761-3.422l-1.069-0.982l0.68,1.285
			c1.565,2.958,3.541,5.711,5.646,7.902c3.39,3.509,6.413,5.117,14.024,7.417c1.231,0.367,1.295,0.378,2.159,0.27
			c0.972-0.119,2.569-0.497,3.584-0.853c0.356-0.119,0.659-0.194,0.68-0.173s-0.291,0.302-0.691,0.615
			c-0.399,0.324-1.522,1.252-2.494,2.073c-5.927,5.009-8.334,6.553-11.681,7.471c-1.349,0.378-3.573,0.475-5.052,0.238
			c-0.939-0.162-1.047-0.205-1.587-0.669c-1.835-1.565-3.595-4.534-5.355-9.014c-0.421-1.101-1.188-3.044-1.684-4.318
			c-2.138-5.43-4.545-9.446-7.881-13.117c-0.648-0.713-2.515-2.537-4.146-4.059c-2.764-2.591-4.469-4.275-5.948-5.905
			c-0.345-0.367-0.669-0.669-0.723-0.669c-0.291,0-0.162,0.324,0.615,1.479c1.954,2.926,3.109,5.106,5.905,11.206
			c2.764,6.024,4.502,9.295,6.715,12.674c2.526,3.865,4.286,5.808,9.241,10.234c2.073,1.846,2.774,2.418,3.055,2.472
			c0.205,0.032,0.745,0.313,1.198,0.615c3.109,2.04,6.618,2.872,11.67,2.742c2.602-0.065,3.455-0.184,7.74-1.036
			c3.757-0.745,4.696-0.874,6.855-0.95c2.764-0.086,4.556,0.151,6.942,0.95c2.85,0.939,4.912,2.386,6.715,4.685
			c2.051,2.623,3.174,5.398,3.822,9.446c0.13,0.745,0.443,3.142,0.713,5.333c0.27,2.192,0.626,4.642,0.799,5.452
			c0.173,0.81,0.421,2.03,0.551,2.71c0.248,1.36,0.745,3.249,1.08,4.124c0.119,0.302,0.194,0.572,0.173,0.594
			c-0.011,0.022-0.896-0.831-1.965-1.889c-1.058-1.058-2.343-2.289-2.85-2.721c-2.969-2.559-3.206-2.936-4.102-6.359
			c-0.302-1.144-0.713-2.515-0.918-3.066c-1.403-3.606-3.703-6.154-6.888-7.633c-2.332-1.069-4.275-1.436-9.522-1.781
			c-4.513-0.291-7.201-0.713-10.234-1.587c-0.831-0.238-1.522-0.41-1.544-0.389c-0.043,0.054,1.339,1.22,2.073,1.738
			c1.306,0.939,4.696,2.386,9.705,4.178c4.934,1.76,7.568,2.882,9.975,4.286c3.778,2.192,6.164,4.707,8.475,8.95
			c0.561,1.026,0.831,1.403,1.285,1.781c1.026,0.853,7.136,6.898,7.719,7.632c0.313,0.399,0.874,1.188,1.231,1.749
			c0.356,0.561,1.058,1.576,1.555,2.235c0.497,0.669,0.874,1.22,0.842,1.22c-0.043,0-0.345-0.173-0.691-0.378
			c-1.846-1.123-4.351-2.073-6.434-2.44c-1.533-0.27-4.48-0.324-6.089-0.108c-1.425,0.184-3.606,0.68-5.074,1.144
			c-1.026,0.324-1.706,0.443-3.886,0.702c-5.15,0.605-9.101,0.669-11.292,0.162c-1.026-0.227-1.954-0.766-2.429-1.403
			c-0.669-0.864-0.734-1.177-1.069-5.074c-0.13-1.555-0.324-2.31-0.853-3.455c-0.691-1.468-1.576-2.472-4.297-4.912
			c-1.997-1.792-4.199-4.016-5.15-5.193c-1.684-2.094-3.098-4.599-4.189-7.406c-0.669-1.738-0.713-1.684-0.518,0.669
			c0.205,2.559,0.939,5.808,2.051,9.068c2.774,8.129,6.413,12.793,13.354,17.122c2.159,1.349,2.418,1.468,3.541,1.598
			c2.472,0.291,7.665,0.389,9.014,0.173c0.54-0.086-4.469,2.213-6.801,3.131c-3.066,1.198-5.042,1.619-7.665,1.619
			c-2.084,0-3.055-0.151-4.858-0.723c-4.61-1.468-7.633-4.307-11.357-10.666c-1.803-3.077-4.243-7.708-4.739-9.014
			c-0.659-1.706-1.166-2.828-2.634-5.884c-1.965-4.048-1.986-4.178-2.213-11.012c-0.173-5.182-0.518-6.985-1.824-9.457
			c-1.749-3.325-4.243-5.678-11.022-10.407c-2.893-2.019-4.426-3.26-5.905-4.782l-1.198-1.242l0.248,0.723
			c0.54,1.576,1.36,3.314,2.774,5.894c2.138,3.886,3.8,6.326,6.996,10.256c2.807,3.455,4.167,5.333,5.506,7.654
			c1.511,2.634,3.12,6.283,3.865,8.755c0.194,0.659,0.475,1.306,0.713,1.663c0.572,0.842,1.317,2.245,1.911,3.595
			c0.291,0.659,0.529,1.209,0.529,1.241c0,0.032-0.291-0.313-0.637-0.777c-1.587-2.062-4.156-4.664-6.207-6.251
			c-3.055-2.386-6.154-3.876-10.051-4.858c-1.576-0.389-4.491-0.95-4.664-0.885c-0.194,0.076-0.184,0.713,0.011,0.713
			c0.291,0,2.051,0.972,3.001,1.652c3.023,2.181,5.355,4.901,6.996,8.172c1.77,3.53,3.519,9.047,4.858,15.33
			c1.328,6.229,2.364,8.982,4.696,12.523c0.702,1.058,2.256,3.077,2.569,3.336c0.097,0.076,0.184,0.194,0.184,0.248
			c0,0.259-2.839-1.501-4.48-2.774c-3.152-2.461-5.247-4.923-6.704-7.881c-1.09-2.213-1.565-3.973-1.932-7.017
			c-0.615-5.225-1.08-6.996-2.602-10.008c-1.609-3.163-3.336-4.934-6.629-6.812c-2.073-1.188-4.351-2.084-6.477-2.559
			c-2.235-0.497-6.078-0.745-12.113-0.788c-3.012-0.022-3.336,0-3.498,0.162c-0.108,0.108-0.162,0.216-0.13,0.248
			c0.032,0.032,0.885,0.281,1.889,0.54c4.782,1.242,10.472,3.822,14.984,6.801c4.469,2.947,7.492,5.884,9.91,9.619
			c1.511,2.332,2.483,4.318,4.178,8.442c0.993,2.429,1.274,2.958,2.397,4.437c0.918,1.198,1.986,2.299,3.573,3.66
			c0.637,0.54,1.134,0.993,1.09,0.993c-0.032,0-0.345-0.076-0.68-0.162s-1.457-0.302-2.494-0.486
			c-2.289-0.399-4.21-0.864-5.29-1.285c-0.443-0.173-1.922-0.864-3.293-1.544c-4.243-2.105-6.596-2.677-10.418-2.537
			c-2.85,0.108-5.247,0.648-8.507,1.922c-2.245,0.885-14.401,6.996-15.243,7.665l-0.27,0.205l0.291-0.097
			c0.982-0.356,5.981-1.717,7.751-2.116c4.448-0.993,9.489-1.792,14.412-2.278c2.386-0.227,8.863-0.324,11.519-0.162
			c4.534,0.281,8.108,0.939,11.206,2.062c0.68,0.248,1.749,0.615,2.375,0.81c1.835,0.572,2.764,0.972,5.506,2.321
			c1.76,0.874,3.12,1.641,4.253,2.397l1.673,1.112l-1.36,0.13c-0.745,0.076-1.749,0.205-2.224,0.313
			c-2.882,0.572-6.1,2.084-8.906,4.156c-1.425,1.069-4.588,2.429-6.337,2.742c-0.238,0.043-1.252,0.529-2.267,1.08
			c-2.828,1.544-7.838,4.059-9.306,4.675c-8.755,3.681-16.625,3.519-24.269-0.507c-0.648-0.345-2.008-1.144-3.012-1.781
			c-1.004-0.637-1.835-1.134-1.857-1.112c-0.076,0.076,1.371,2.407,2.073,3.336c4.675,6.229,12.89,9.543,19.367,7.805
			c2.559-0.691,4.577-1.835,9.068-5.117c1.101-0.799,2.828-2.062,3.832-2.796c1.954-1.436,4.124-2.915,5.452-3.714
			c1.134-0.68,3.303-1.846,3.886-2.073c0.453-0.184,0.41-0.119-1.08,1.414c-1.803,1.846-2.98,3.228-5.603,6.596
			c-2.915,3.735-3.994,4.988-6.272,7.265c-2.04,2.051-3.595,3.39-5.096,4.394c-0.907,0.605-1.673,0.799-6.078,1.544
			c-7.697,1.295-12.091,2.451-15.33,4.038c-3.778,1.846-5.786,3.843-9.651,9.608c-2.418,3.606-3.163,4.782-3.12,4.977
			c0.022,0.097,0.648-0.432,1.652-1.382c2.656-2.526,3.897-3.498,7.449-5.83c4.07-2.677,7.309-4.448,11.659-6.38
			c4.815-2.138,7.6-3.012,12.404-3.908c1.209-0.227,2.181-0.464,2.375-0.583c0.184-0.119,1.09-0.486,2.008-0.82
			c5.042-1.868,9.112-3.984,17.921-9.306c1.868-1.134,4.092-2.418,4.934-2.861c5.322-2.818,9.025-3.832,12.555-3.444
			c1.565,0.173,3.044,0.497,7.179,1.565c4.027,1.058,7.298,1.792,9.122,2.084c2.364,0.367,8.269,0.227,10.31-0.238
			c0.324-0.076-2.073,1.069-3.778,1.803c-3.724,1.609-6.1,2.17-13.872,3.314c-7.892,1.166-9.122,1.393-10.979,2.008
			c-2.613,0.874-4.782,2.375-6.769,4.696c-1.134,1.328-2.148,2.785-4.167,5.992c-3.714,5.894-5.851,8.475-9.371,11.271
			c-0.842,0.68-1.511,1.252-1.49,1.274c0.054,0.065,4.728-1.22,6.11-1.684c3.411-1.144,7.967-3.66,11.119-6.164
			c1.425-1.123,4.567-4.264,6.585-6.585c1.965-2.245,3.984-4.318,5.236-5.376c3.249-2.731,6.963-4.297,11.541-4.88
			c0.691-0.086,1.069-0.216,1.889-0.637c0.572-0.291,1.986-0.907,3.142-1.36c3.239-1.295,4.405-1.922,6.413-3.444
			c0.907-0.702,1.026-0.756,2.321-1.101c1.824-0.497,3.509-1.09,6.11-2.127c4.523-1.803,5.668-2.073,8.69-2.062
			c1.36,0,2.397,0.065,3.239,0.194c1.36,0.205,4.955,1.09,5.106,1.241c0.173,0.173-1.026,0.864-3.552,2.051
			c-2.073,0.982-5.592,2.828-7.87,4.146c-0.41,0.238-1.803,1.101-3.077,1.911c-1.274,0.81-3.001,1.857-3.832,2.321
			c-0.831,0.453-1.997,1.101-2.591,1.436c-4.383,2.429-6.78,4.588-8.097,7.287c-1.511,3.109-1.425,6.974,0.27,11.886
			c0.248,0.712,1.026,2.72,1.727,4.48c1.878,4.685,2.375,6.585,2.375,9.187c0,0.745-0.076,1.911-0.173,2.58
			c-0.086,0.669-0.151,1.242-0.119,1.263c0.054,0.054,1.252-1.781,2.04-3.142c0.723-1.242,0.95-1.803,1.317-3.26
			c0.853-3.379,1.015-7.071,0.54-12.069c-0.281-2.915-0.259-6.726,0.043-8.475c0.291-1.695,0.648-2.936,1.263-4.383
			c1.576-3.681,4.297-7.201,6.801-8.798c0.507-0.324,1.231-0.831,1.609-1.123c1.252-0.982,5.517-3.023,11.594-5.571l2.289-0.961
			l1.652,0.475c1.965,0.572,3.671,0.961,5.484,1.252c0.734,0.119,1.663,0.291,2.051,0.378c1.749,0.389,4.189,0.669,9.435,1.08
			c3.994,0.313,6.618,0.594,9.122,0.982c5.074,0.788,7.557,1.511,10.958,3.217c6.164,3.109,11.433,7.406,15.362,12.566
			c4.437,5.819,8.377,14.229,10.364,22.099c1.641,6.488,2.343,12.523,2.472,21.159c0.151,10.72-0.691,23.243-2.03,30.012
			c-1.663,8.42-5.117,15.081-10.59,20.404c-2.451,2.397-4.869,4.189-7.892,5.884c-4.426,2.461-7.633,3.455-14.293,4.426
			c-6.585,0.961-11.206,1.9-19.411,3.951c-5.29,1.328-8.259,2.17-12.793,3.66c-1.155,0.378-3.314,1.036-4.804,1.457
			c-8.982,2.569-14.671,4.664-24.236,8.928c-5.085,2.267-7.255,2.85-12.016,3.217c-8.55,0.648-10.45,1.036-17.165,3.519
			c-8.064,2.99-14.941,4.567-26.741,6.143c-5.538,0.745-7.535,1.177-9.079,1.954c-0.918,0.464-1.285,0.81-1.285,1.22
			c0,0.788,0.561,0.928,3.778,1.004c5.527,0.13,18.73-0.389,25.532-0.993c5.117-0.464,8.507-1.036,19.54-3.336
			c3.649-0.756,6.261-1.09,6.693-0.853c0.173,0.097,0.13,0.151-0.324,0.421c-0.291,0.162-1.932,0.939-3.66,1.727
			c-1.727,0.777-4.113,1.878-5.301,2.44c-4.739,2.256-6.467,2.915-12.706,4.88c-1.976,0.626-4.61,1.371-5.851,1.673
			c-3.746,0.918-6.002,1.706-6.434,2.256c-0.194,0.238-0.205,0.302-0.065,0.497c0.14,0.227,0.216,0.227,4.988,0.27
			c7.514,0.054,14.628,0.011,16.291-0.108c4.966-0.345,7.967-1.285,13.063-4.092c2.591-1.425,5.322-2.774,7.395-3.649
			c1.878-0.788,4.815-1.932,14.887-5.765c2.915-1.112,4.545-1.479,4.545-1.026c0,0.184-0.896,1.036-1.533,1.468
			c-0.291,0.194-1.468,0.853-2.634,1.479c-3.055,1.63-3.649,2.051-6.251,4.361c-0.766,0.68-1.792,1.544-2.267,1.9
			c-1.242,0.939-5.128,3.53-6.963,4.631c-3.671,2.224-5.884,3.908-5.808,4.415c0.086,0.54,0.475,0.497,3.379-0.41
			c2.267-0.702,4.944-1.263,7.125-1.479c5.732-0.572,8.215-1.274,11.119-3.163c1.123-0.734,1.878-1.371,4.038-3.401
			c2.472-2.31,3.411-3.034,7.73-5.905c2.084-1.382,4.556-3.044,5.506-3.714c4.307-3.001,7.406-4.513,9.446-4.61
			c0.799-0.043,0.982-0.011,1.393,0.205c0.766,0.399,0.928,0.702,0.928,1.738c-0.011,0.777-0.043,0.961-0.345,1.544
			c-0.475,0.907-1.285,1.9-3.552,4.34c-1.058,1.144-2.44,2.623-3.055,3.282c-1.123,1.22-3.498,4.113-4.75,5.808
			c-0.864,1.166-1.328,2.073-1.285,2.515c0.032,0.302,0.097,0.367,0.497,0.497c0.41,0.13,0.529,0.119,0.928-0.032
			c1.058-0.41,2.58-1.555,5.311-4.005c0.605-0.551,1.555-1.274,2.105-1.609c0.561-0.345,1.652-1.08,2.418-1.63
			c3.897-2.764,5.722-3.908,8.172-5.117c1.598-0.799,2.818-1.209,3.023-1.004c0.184,0.184-0.497,1.49-1.695,3.206
			c-3.93,5.689-4.901,7.298-7.287,12.091c-2.99,6.024-3.908,7.341-8.421,12.026c-3.724,3.865-5.7,5.614-10.321,9.155
			c-2.915,2.224-3.336,2.688-2.904,3.163c0.518,0.583,5.096,0,8.259-1.036c1.77-0.583,3.239-1.306,5.128-2.548
			c2.72-1.781,4.038-2.947,10.85-9.64c4.642-4.567,6.693-6.467,8.917-8.259c2.461-1.986,6.434-4.696,12.458-8.507
			c3.649-2.31,5.819-3.789,7.665-5.214c2.72-2.105,9.23-6.79,9.446-6.79c0.097,0,0.065,2.375-0.054,3.843
			c-0.27,3.422-0.605,5.754-1.263,8.572c-0.615,2.699-0.734,3.098-4.901,16.625c-0.356,1.155-1.198,3.487-1.878,5.182
			c-0.669,1.695-1.285,3.303-1.349,3.573c-0.162,0.626-0.108,1.285,0.119,1.425c0.389,0.237,0.799-0.043,2.418-1.684
			c3.778-3.811,6.747-7.568,9.587-12.113c3.465-5.56,4.275-7.168,6.067-11.929c0.464-1.22,1.155-2.969,1.544-3.886
			c0.874-2.073,3.239-6.769,3.984-7.935c0.594-0.918,1.166-1.544,1.295-1.414c0.194,0.194,0.13,1.76-0.194,4.707
			c-0.302,2.764-0.356,3.563-0.356,6.046c-0.011,3.26,0.065,4.092,0.799,9.284c0.583,4.146,0.68,4.977,0.918,7.956
			c0.086,1.134,0.227,2.256,0.291,2.483c0.119,0.345,0.194,0.41,0.486,0.443c0.594,0.054,0.81-0.335,2.138-3.865
			c1.932-5.16,2.753-7.017,5.711-13.009c1.263-2.559,2.634-5.419,3.034-6.369c0.799-1.857,0.918-2.084,0.918-1.663
			c0,0.486,0.324,3.919,0.497,5.279c0.086,0.745,0.399,2.785,0.691,4.534c0.734,4.383,1.026,6.65,1.349,10.364
			c0.313,3.573,0.486,4.934,0.864,6.585c1.285,5.646,1.598,6.834,2.559,9.77c0.324,0.982,0.389,1.08,0.626,1.08
			s0.302-0.108,0.68-1.241c0.864-2.645,1.295-4.275,2.505-9.608c0.378-1.652,0.551-3.012,0.864-6.585
			c0.324-3.714,0.605-5.862,1.339-10.321c0.302-1.781,0.615-3.854,0.713-4.588c0.162-1.382,0.486-4.804,0.486-5.268
			c0-0.421,0.119-0.194,0.918,1.663c0.399,0.95,1.77,3.811,3.034,6.369c2.958,5.992,3.746,7.784,5.7,12.987
			c0.993,2.645,1.198,3.12,1.544,3.563c0.216,0.291,0.335,0.356,0.605,0.324c0.292-0.032,0.367-0.097,0.486-0.443
			c0.065-0.227,0.205-1.349,0.292-2.483c0.237-2.98,0.335-3.811,0.918-7.956c0.734-5.193,0.81-6.024,0.799-9.284
			c0-2.483-0.054-3.282-0.356-6.046c-0.335-2.99-0.389-4.513-0.184-4.718c0.13-0.13,0.918,0.81,1.501,1.792
			c1.63,2.742,3.671,7.136,5.203,11.184c1.684,4.459,2.407,5.97,4.459,9.371c3.314,5.527,4.923,7.805,8.215,11.627
			c1.824,2.116,4.631,4.934,5.02,5.031c0.432,0.108,0.648-0.065,0.691-0.551c0.054-0.637-0.108-1.155-1.436-4.48
			c-0.68-1.695-1.522-4.027-1.878-5.182c-4.005-12.998-4.102-13.322-4.588-15.276c-0.734-2.936-1.112-5.096-1.414-8.043
			c-0.184-1.835-0.345-5.722-0.227-5.722c0.227,0,6.618,4.588,9.457,6.79c1.846,1.425,4.016,2.904,7.665,5.214
			c6.024,3.811,9.975,6.51,12.48,8.529c2.138,1.717,4.34,3.757,9.004,8.345c6.682,6.564,8.021,7.762,10.742,9.533
			c1.835,1.198,3.325,1.954,4.955,2.494c2.289,0.756,5.311,1.306,7.233,1.306c0.864,0,1.026-0.032,1.198-0.216
			c0.432-0.475,0.011-0.939-2.904-3.163c-4.621-3.541-6.596-5.29-10.321-9.155c-4.567-4.739-5.376-5.894-8.626-12.404
			c-2.343-4.685-3.185-6.078-7.082-11.713c-1.198-1.716-1.878-3.023-1.695-3.206c0.205-0.205,1.425,0.205,3.023,1.004
			c2.451,1.209,4.275,2.353,8.172,5.117c0.777,0.551,1.846,1.274,2.397,1.609c0.583,0.367,1.727,1.274,2.807,2.235
			c2.839,2.526,4.534,3.638,5.311,3.498c0.874-0.162,0.972-0.507,0.453-1.544c-0.561-1.123-3.768-5.203-5.743-7.341
			c-0.615-0.659-1.997-2.138-3.055-3.282c-3.271-3.519-3.843-4.361-3.93-5.808c-0.032-0.712-0.011-0.853,0.216-1.188
			c0.14-0.205,0.464-0.486,0.734-0.626c0.421-0.216,0.605-0.248,1.403-0.205c2.062,0.097,5.182,1.63,9.63,4.739
			c1.026,0.713,3.498,2.386,5.484,3.703c4.135,2.742,5.052,3.444,7.643,5.862c2.094,1.965,2.969,2.688,4.07,3.401
			c2.904,1.857,5.959,2.677,11.767,3.152c1.447,0.119,4.782,0.896,7.406,1.727c0.842,0.27,1.663,0.486,1.824,0.486
			c0.324,0,0.54-0.173,0.54-0.432c0-0.507-2.321-2.245-5.83-4.372c-1.835-1.101-5.722-3.692-6.963-4.631
			c-0.475-0.356-1.49-1.22-2.267-1.9c-2.602-2.31-3.195-2.731-6.251-4.361c-2.418-1.295-2.936-1.619-3.649-2.321
			c-0.853-0.81-0.615-1.004,0.799-0.669c1.241,0.291,0.756,0.108,13.365,4.944c5.29,2.03,7.73,3.131,11.551,5.225
			c5.322,2.904,7.492,3.681,11.886,4.264c1.954,0.248,10.99,0.421,14.067,0.259c1.641-0.097,3.519-0.108,5.625-0.054l3.163,0.076
			l0.173-0.248c0.14-0.205,0.151-0.281,0.032-0.475c-0.356-0.551-2.796-1.436-6.499-2.332c-2.267-0.54-8.043-2.299-10.904-3.314
			c-2.688-0.95-4.912-1.9-8.529-3.638c-0.95-0.453-2.915-1.36-4.361-2.019c-2.958-1.328-3.627-1.652-3.984-1.932l-0.259-0.194
			l0.291-0.076c0.669-0.162,3.12,0.162,6.585,0.885c10.99,2.289,14.38,2.872,19.486,3.325c6.682,0.605,20.058,1.134,25.586,1.004
			c3.217-0.076,3.778-0.216,3.778-1.004c0-0.41-0.367-0.756-1.285-1.22c-1.544-0.788-3.541-1.209-9.133-1.954
			c-4.621-0.615-7.935-1.166-11.864-1.954c-5.927-1.188-9.273-2.127-14.822-4.189c-6.477-2.397-8.95-2.926-15.848-3.411
			c-6.067-0.432-8.032-0.928-13.764-3.509c-8.777-3.94-14.963-6.218-23.804-8.744c-1.479-0.421-3.649-1.08-4.804-1.457
			c-4.567-1.49-7.568-2.353-12.793-3.66c-8.205-2.051-12.75-2.98-19.421-3.951c-5.106-0.756-7.287-1.274-10.213-2.461
			c-3.034-1.231-6.348-3.163-9.176-5.355c-1.339-1.036-4.631-4.275-5.657-5.571c-1.814-2.278-3.778-5.571-5.02-8.388
			c-1.015-2.321-2.094-5.905-2.699-8.939c-1.339-6.758-2.181-19.303-2.03-30.012c0.205-14.088,2.235-23.707,7.093-33.704
			c3.088-6.348,6.197-10.763,10.299-14.585c3.142-2.947,6.596-5.376,10.375-7.319c2.904-1.49,4.696-2.127,7.881-2.796
			c3.465-0.723,6.942-1.177,12.631-1.619c5.247-0.41,7.686-0.691,9.435-1.08c0.389-0.086,1.317-0.259,2.051-0.378
			c1.814-0.292,3.519-0.68,5.484-1.252l1.652-0.475l2.289,0.961c6.078,2.548,10.342,4.588,11.594,5.571
			c0.378,0.291,1.101,0.81,1.619,1.134c2.483,1.587,5.225,5.128,6.78,8.766c0.626,1.479,0.982,2.71,1.274,4.405
			c0.313,1.814,0.324,5.495,0.032,8.529c-0.302,3.077-0.291,7.384,0.032,9.446c0.345,2.235,0.799,3.832,1.403,5.02
			c0.561,1.101,2.386,4.038,2.472,3.962c0.022-0.032-0.032-0.659-0.14-1.382c-0.248-1.878-0.162-4.243,0.216-5.873
			c0.389-1.663,0.68-2.483,2.073-5.938c2.17-5.398,2.72-7.319,2.958-10.202c0.184-2.245-0.173-4.264-1.08-6.1
			c-1.306-2.656-3.692-4.793-8.043-7.201c-0.594-0.335-1.76-0.982-2.591-1.436c-0.831-0.464-2.559-1.511-3.832-2.321
			c-1.274-0.81-2.656-1.673-3.077-1.911c-2.278-1.317-5.797-3.163-7.87-4.146c-2.526-1.188-3.724-1.878-3.552-2.051
			c0.151-0.151,3.746-1.036,5.106-1.241c0.842-0.13,1.878-0.194,3.239-0.194c3.023-0.011,4.167,0.259,8.69,2.062
			c2.591,1.036,4.286,1.63,6.11,2.116c1.317,0.367,1.382,0.399,2.526,1.252c1.911,1.447,3.034,2.04,6.207,3.303
			c1.155,0.453,2.569,1.069,3.142,1.36c0.82,0.421,1.198,0.551,1.889,0.637c4.577,0.583,8.291,2.148,11.54,4.88
			c1.252,1.058,3.271,3.131,5.236,5.376c2.019,2.321,5.16,5.463,6.585,6.585c3.152,2.494,7.708,5.02,11.087,6.154
			c1.414,0.464,6.078,1.76,6.143,1.695c0.022-0.022-0.626-0.572-1.436-1.231c-0.82-0.659-1.9-1.576-2.407-2.051
			c-1.814-1.706-3.962-4.459-6.046-7.751c-2.526-3.984-4.124-6.326-5.117-7.471c-1.911-2.235-4.016-3.746-6.413-4.61
			c-1.824-0.648-3.584-0.982-11.303-2.116c-7.816-1.144-10.191-1.716-13.926-3.325c-1.695-0.734-4.113-1.889-3.778-1.803
			c1.976,0.464,7.946,0.605,10.31,0.238c1.824-0.291,5.096-1.026,9.122-2.084c4.135-1.069,5.614-1.393,7.179-1.565
			c3.541-0.389,7.222,0.626,12.534,3.422c0.831,0.443,3.044,1.727,4.934,2.872c8.939,5.398,13.02,7.503,18.104,9.371
			c0.831,0.313,1.663,0.648,1.846,0.766c0.194,0.119,1.155,0.356,2.375,0.583c4.804,0.896,7.589,1.77,12.404,3.908
			c4.351,1.932,7.589,3.703,11.659,6.38c3.552,2.332,4.793,3.303,7.449,5.83c1.004,0.95,1.63,1.479,1.652,1.382
			c0.043-0.194-0.702-1.371-3.12-4.977c-3.865-5.765-5.873-7.762-9.651-9.619c-3.206-1.565-7.622-2.731-15.33-4.027
			c-4.405-0.745-5.171-0.939-6.078-1.544c-1.501-1.004-3.055-2.343-5.096-4.394c-2.278-2.278-3.357-3.53-6.272-7.265
			c-2.623-3.368-3.8-4.75-5.603-6.596c-1.49-1.533-1.533-1.598-1.08-1.414c0.583,0.227,2.753,1.393,3.886,2.073
			c1.328,0.799,3.498,2.278,5.452,3.714c1.015,0.734,2.731,1.997,3.832,2.807c4.728,3.455,7.157,4.75,9.932,5.301
			c3.303,0.659,7.244,0.032,10.904-1.716c2.861-1.371,5.689-3.703,7.6-6.272c0.669-0.918,2.138-3.282,2.073-3.347
			c-0.022-0.022-0.853,0.475-1.857,1.112c-1.004,0.637-2.364,1.436-3.012,1.781c-7.654,4.027-15.503,4.189-24.29,0.497
			c-1.447-0.605-6.467-3.131-9.284-4.664c-1.004-0.551-2.03-1.036-2.267-1.08c-1.749-0.313-4.912-1.673-6.337-2.742
			c-2.807-2.073-6.024-3.584-8.906-4.156c-0.475-0.108-1.479-0.238-2.224-0.313l-1.36-0.13l1.641-1.09
			c2.375-1.576,6.736-3.746,8.993-4.469c0.583-0.184,1.673-0.561,2.418-0.82c3.724-1.36,7.179-2.03,11.962-2.321
			c2.656-0.162,9.144-0.065,11.519,0.162c4.923,0.486,9.964,1.285,14.412,2.278c1.77,0.399,6.769,1.76,7.751,2.116l0.291,0.097
			l-0.27-0.205c-0.842-0.669-12.998-6.78-15.243-7.665c-3.26-1.274-5.657-1.814-8.507-1.922c-3.832-0.14-6.164,0.432-10.472,2.559
			c-3.703,1.835-4.34,2.051-8.475,2.796c-1.306,0.237-2.613,0.507-2.893,0.594c-0.292,0.086-0.507,0.14-0.486,0.13
			c2.375-1.965,3.757-3.325,4.88-4.815c1.123-1.49,1.263-1.749,2.505-4.739c1.296-3.142,1.868-4.372,2.699-5.862
			c2.785-4.977,5.981-8.345,11.217-11.8c4.513-2.98,10.202-5.56,14.984-6.801c1.004-0.259,1.857-0.507,1.889-0.54
			c0.032-0.032-0.022-0.14-0.119-0.248c-0.27-0.259-1.252-0.281-6.121-0.14c-4.89,0.151-6.585,0.259-8.421,0.561
			c-2.98,0.497-6.24,1.803-8.96,3.606c-2.44,1.619-3.886,3.293-5.322,6.153c-1.425,2.872-1.9,4.707-2.505,9.824
			c-0.453,3.811-1.339,6.402-3.109,9.111c-1.965,3.001-5.722,6.348-9.209,8.237c-0.734,0.389-1.058,0.432-0.615,0.076
			c0.648-0.54,2.796-3.541,3.735-5.257c1.619-2.926,2.31-5.02,3.584-10.817c1.77-8.097,3.854-13.991,6.175-17.5
			c1.457-2.192,3.379-4.178,5.625-5.786c0.95-0.68,2.71-1.652,3.001-1.652c0.194,0,0.205-0.637,0.011-0.713
			c-0.173-0.065-3.088,0.497-4.664,0.885c-3.897,0.982-6.996,2.472-10.051,4.858c-2.051,1.587-4.621,4.189-6.207,6.251
			c-0.345,0.464-0.637,0.81-0.637,0.777c0-0.032,0.238-0.583,0.529-1.241c0.594-1.349,1.339-2.753,1.911-3.595
			c0.237-0.356,0.518-1.004,0.712-1.663c0.475-1.587,1.49-4.092,2.386-5.938c1.835-3.746,3.336-6.002,6.985-10.472
			c2.882-3.541,4.394-5.711,6.261-8.96c1.252-2.192,3.012-5.765,3.444-6.985l0.324-0.939l-1.155,1.198
			c-1.511,1.565-2.904,2.699-5.981,4.847c-6.78,4.739-9.252,7.071-10.99,10.385c-1.306,2.483-1.652,4.275-1.835,9.468
			c-0.216,6.618-0.345,7.276-2.008,10.601c-1.058,2.116-2.278,4.815-2.861,6.348c-0.507,1.349-3.951,7.784-5.463,10.202
			c-2.947,4.728-5.301,7.104-8.572,8.626c-2.375,1.101-4.253,1.522-6.898,1.522c-2.72,0-4.815-0.475-8.161-1.824
			c-1.511-0.605-6.564-2.882-6.499-2.926c0.022,0,0.766,0.032,1.652,0.076c2.332,0.13,6.564-0.054,8.226-0.345
			c0.583-0.097,2.256-1.036,4.243-2.375c3.595-2.418,6.521-5.376,8.485-8.583c2.796-4.567,5.117-11.573,5.549-16.733
			c0.194-2.353,0.151-2.407-0.518-0.669c-1.868,4.815-4.016,7.773-8.852,12.134c-1.166,1.058-2.407,2.213-2.753,2.569
			c-1.911,1.965-2.667,3.617-2.893,6.315c-0.302,3.66-0.41,4.178-1.058,5.031c-0.475,0.626-1.414,1.166-2.429,1.393
			c-2.192,0.507-6.143,0.443-11.292-0.162c-2.191-0.259-2.861-0.378-3.886-0.702c-2.872-0.907-5.117-1.274-7.881-1.274
			c-2.332,0.011-3.778,0.216-5.668,0.842c-1.263,0.41-3.012,1.209-4.048,1.835c-0.345,0.205-0.648,0.378-0.691,0.378
			c-0.032,0,0.345-0.551,0.842-1.22c0.497-0.659,1.198-1.673,1.555-2.235s0.918-1.349,1.231-1.749
			c0.583-0.734,6.693-6.78,7.719-7.632c0.443-0.367,0.713-0.756,1.339-1.878c2.278-4.167,4.664-6.672,8.421-8.852
			c2.386-1.382,5.096-2.548,9.975-4.286c5.009-1.792,8.399-3.239,9.705-4.178c0.734-0.518,2.116-1.684,2.073-1.738
			c-0.022-0.022-0.745,0.162-1.587,0.41c-2.85,0.81-5.732,1.274-9.435,1.511c-5.085,0.324-7.093,0.615-9.144,1.349
			c-3.142,1.123-5.808,3.498-7.319,6.531c-0.615,1.209-1.069,2.526-1.619,4.664c-0.713,2.753-1.08,3.509-2.289,4.685
			c-0.497,0.486-1.306,1.231-1.814,1.673c-0.507,0.432-1.792,1.652-2.85,2.71c-1.069,1.058-1.954,1.9-1.976,1.889
			c-0.022-0.022,0.032-0.205,0.119-0.41c0.281-0.68,0.918-3.044,1.144-4.307c0.13-0.68,0.378-1.911,0.551-2.742
			c0.173-0.82,0.54-3.271,0.799-5.452c0.27-2.17,0.583-4.556,0.712-5.301c0.648-4.048,1.77-6.823,3.822-9.446
			c1.803-2.299,3.865-3.746,6.715-4.685c2.386-0.799,4.178-1.036,6.942-0.95c2.181,0.076,3.142,0.205,6.844,0.95
			c4.253,0.853,5.139,0.972,7.751,1.036c5.052,0.13,8.561-0.702,11.67-2.742c0.453-0.302,0.993-0.583,1.198-0.615
			c0.281-0.054,0.982-0.615,3.055-2.461c4.944-4.426,6.715-6.38,9.241-10.245c2.191-3.347,4.199-7.125,6.758-12.782
			c2.483-5.463,3.919-8.183,5.754-10.936c0.885-1.317,1.026-1.641,0.712-1.641c-0.054,0-0.378,0.302-0.712,0.669
			c-1.382,1.522-2.72,2.861-5.905,5.862c-1.835,1.738-3.832,3.703-4.426,4.361c-2.353,2.645-4.275,5.517-5.884,8.809
			c-0.777,1.587-1.231,2.677-3.444,8.367c-1.77,4.523-3.541,7.492-5.398,9.047c-0.507,0.432-0.648,0.486-1.555,0.637
			c-1.468,0.238-3.692,0.14-5.042-0.238c-3.347-0.918-5.754-2.461-11.681-7.471c-0.972-0.82-2.094-1.749-2.494-2.073
			c-0.399-0.313-0.713-0.594-0.691-0.615c0.022-0.022,0.324,0.054,0.68,0.173c1.015,0.356,2.613,0.734,3.584,0.853
			c0.982,0.13,1.112,0.097,4.772-1.09c7.147-2.31,10.537-4.782,14.79-10.774c0.918-1.295,1.414-2.105,2.245-3.703l0.669-1.274
			l-1.058,0.972c-1.803,1.673-3.012,2.537-4.761,3.411c-1.425,0.713-2.127,0.961-4.674,1.619c-3.325,0.874-4.459,1.371-5.808,2.559
			c-1.134,1.004-2.472,2.861-3.325,4.621c-0.648,1.339-1.166,2.138-1.576,2.386c-0.464,0.281-1.371,0.259-2.774-0.054
			c-2.451-0.561-5.625-1.673-6.855-2.397c-1.868-1.112-4.307-2.094-6.197-2.494c-1.393-0.291-4.297-0.27-5.916,0.054
			c-3.228,0.648-6.046,1.986-8.669,4.113l-0.453,0.378l0.076-0.54c0.324-2.289,1.22-5.732,1.716-6.629
			c0.475-0.874,1.695-2.667,2.256-3.314c0.259-0.313,0.551-0.702,0.637-0.864c0.086-0.162,0.227-0.378,0.313-0.464
			c0.086-0.097,0.464-0.54,0.831-0.993c0.766-0.95,1.716-1.619,3.541-2.515c4.815-2.343,10.904-3.088,21.267-2.602
			c5.819,0.27,8.41,0.216,11.335-0.259c1.533-0.248,3.671-0.82,4.804-1.285l0.81-0.335l-1.188,0.086
			c-1.9,0.119-4.415,0.065-5.614-0.14c-1.695-0.291-3.714-0.842-5.938-1.619c-6.229-2.202-7.395-2.515-10.148-2.764
			c-4.081-0.367-7.762,0.421-10.839,2.332c-3.152,1.943-5.754,4.653-9.705,10.094c-0.842,1.155-1.349,1.749-1.252,1.457
			c0.032-0.119,0.637-1.382,1.339-2.807c2.667-5.419,6.661-11.497,9.219-14.034c2.127-2.116,4.318-3.724,6.931-5.106
			c0.788-0.41,1.954-1.134,2.591-1.609c2.785-2.04,3.39-2.343,6.575-3.26c2.699-0.777,9.716-2.04,14.466-2.602
			c4.264-0.497,7.233-0.68,14.088-0.864c4.372-0.119,5.603-0.259,8.097-0.896c1.393-0.367,3.271-0.993,4.318-1.447l0.486-0.216
			l-2.429-0.054c-2.915-0.076-3.703-0.205-7.946-1.263c-4.318-1.08-6.024-1.36-9.187-1.479c-3.822-0.151-7.201,0.389-10.645,1.684
			c-3.433,1.285-6.434,2.893-12.598,6.769c-1.511,0.95-3.455,2.127-4.318,2.623c-0.864,0.486-1.663,0.982-1.781,1.08
			c-0.119,0.108-0.529,0.324-0.918,0.486c-1.349,0.561-2.731,1.382-5.333,3.185c-0.41,0.281,2.559-2.807,5.02-5.236
			c4.642-4.567,8-7.352,12.922-10.742c1.641-1.123,1.641-1.123,2.807-2.645c2.105-2.721,2.483-3.336,3.228-5.279
			c0.799-2.084,1.295-4.491,2.353-11.454c1.08-7.158,2.375-11.368,4.707-15.351c1.533-2.591,3.757-5.506,5.97-7.773
			c0.41-0.432,0.723-0.82,0.68-0.864s-0.507,0.227-1.026,0.594s-1.76,1.231-2.774,1.932c-3.217,2.224-4.793,3.465-6.272,4.944
			c-1.684,1.673-2.623,2.915-3.487,4.588c-2.04,3.951-2.591,8.431-2.073,16.798c0.335,5.409,0.281,7.373-0.27,9.533
			c-0.345,1.393-0.605,1.727-1.878,2.472c-4.027,2.332-7.816,3.994-14.142,6.207c-8.798,3.088-14.067,5.463-19.842,8.95
			c-4.89,2.947-9.068,6.521-12.987,11.098c-5.387,6.305-8.798,11.929-10.806,17.813c-1.209,3.541-2.192,8.075-2.731,12.523
			c-0.086,0.799-0.205,1.576-0.238,1.727c-0.054,0.227-0.076,0.194-0.151-0.216c-0.162-1.036-0.432-4.372-0.518-6.553
			c-0.162-4.243,0.086-5.538,2.073-10.828c1.274-3.411,1.878-5.365,2.202-7.125c0.291-1.533,0.259-5.722-0.054-7.989
			c-0.54-3.93-0.993-7.697-0.993-8.172c0-0.972-0.14-0.896-0.907,0.486c-1.522,2.742-2.548,5.203-3.357,8.01
			c-0.928,3.228-1.339,5.84-1.425,9.122c-0.076,2.785,0.032,4.534,0.615,10.364c0.237,2.31,0.475,5.182,0.54,6.369
			c0.184,3.465,0.162,3.26,0.982,9.5c0.259,1.9,0.324,2.71,0.27,3.455c-0.216,3.563-2.159,14.704-3.465,19.886
			c-0.885,3.53-1.878,5.981-3.228,8.01c-2.882,4.307-8.097,7.784-14.391,9.608c-1.447,0.421-4.674,1.198-4.977,1.198
			c-0.086,0,0.086-0.184,0.378-0.41c0.982-0.777,3.401-3.584,4.718-5.473c1.846-2.634,2.364-3.196,5.301-5.722
			c3.303-2.85,4.901-4.599,6.1-6.682c0.972-1.706,1.619-3.509,1.997-5.571c0.313-1.717,0.335-5.581,0.054-9.446
			c-0.238-3.411-0.292-7.568-0.119-9.878c0.043-0.68,0.076-1.252,0.065-1.274c-0.043-0.054-1.565,3.994-1.976,5.268
			c-0.237,0.745-0.939,3.411-1.565,5.938c-1.188,4.772-2.202,8.399-3.034,10.914c-2.267,6.844-5.085,12.415-7.946,15.751
			c-0.281,0.324-0.615,0.831-0.745,1.123c-0.896,2.062-2.947,4.113-5.538,5.581c-0.95,0.529-1.069,0.572-2.785,0.864
			c-0.982,0.162-2.31,0.345-2.969,0.41c-1.447,0.14-6.542,0.356-6.618,0.281c-0.108-0.108,0.324-2.839,0.68-4.34
			c1.317-5.463,3.509-10.137,6.812-14.499c6.521-8.604,7.816-10.483,10.018-14.552c3.142-5.786,5.376-12.663,6.1-18.698
			c0.248-2.116,0.302-2.796,0.443-5.765c0.184-4.027,1.123-9.036,2.353-12.696c1.188-3.498,2.764-6.272,6.078-10.644
			c1.522-2.019,3.789-5.031,4.523-6.035c0.292-0.399,0.702-0.713,1.781-1.371c3.39-2.051,5.981-3.109,9.068-3.703
			c1.619-0.302,2.623-0.302,5.765-0.011c6.013,0.572,9.219,0.259,12.858-1.252c1.231-0.518,2.116-0.993,3.368-1.835
			c1.274-0.853,2.127-1.576,4.664-3.994c3.509-3.336,5.625-5.074,8.766-7.222c0.885-0.594,1.511-1.069,1.393-1.036
			c-0.119,0.032-0.507,0.119-0.864,0.184c-1.706,0.324-4.351,1.198-6.531,2.159c-0.561,0.248-2.526,1.22-4.372,2.159
			c-7.265,3.714-11.12,5.268-16.085,6.477c-7.978,1.943-10.148,2.526-11.735,3.196c-1.231,0.518-4.847,2.71-6.186,3.757
			c-0.259,0.205-0.399,0.27-0.356,0.162c0.119-0.302,2.343-3.757,3.12-4.847c1.339-1.857,2.17-2.839,3.757-4.426
			c2.602-2.58,5.193-4.426,9.025-6.38c2.602-1.328,4.102-1.997,8.766-3.854c5.722-2.299,7.6-3.185,9.91-4.707
			c2.494-1.641,3.606-2.667,6.888-6.326c1.306-1.457,2.71-2.969,3.12-3.357c0.745-0.713,0.745-0.723,1.652-2.893
			c0.507-1.198,1.501-3.789,2.224-5.765c2.105-5.754,3.152-8.226,5.139-12.059c2.299-4.448,4.253-7.784,6.909-11.81
			c0.972-1.479,1.749-2.71,1.716-2.731c-0.173-0.184-10.234,9.802-11.854,11.756c-2.548,3.077-3.541,5.106-4.038,8.259
			c-0.162,0.961-0.194,1.997-0.205,5.808c-0.022,4.934-0.097,5.765-0.594,7.104c-0.432,1.144-2.548,2.915-4.804,4.016
			c-3.163,1.544-6.823,2.03-13.484,1.803c-4.88-0.184-7.805-0.162-9.565,0.043c-5.722,0.659-10.558,2.58-13.581,5.387
			c-0.486,0.453-0.864,0.766-0.831,0.68c0.022-0.076,0.238-0.874,0.475-1.76c0.615-2.299,0.702-3.109,0.54-4.955l-0.13-1.522
			l0.41-0.81c0.583-1.177,1.198-1.986,2.299-3.044c2.278-2.192,3.314-2.548,8.766-3.055c5.128-0.475,7.859-0.896,10.85-1.673
			c4.135-1.069,6.672-2.386,8.917-4.631c1.339-1.339,2.31-2.753,3.768-5.463c0.551-1.015,1.36-2.515,1.814-3.347
			c0.831-1.533,1.976-3.476,3.293-5.571c0.907-1.436,1.09-1.868,0.939-2.148c-0.194-0.356-0.68-0.259-2.461,0.529
			c-3.908,1.717-6.542,2.494-11.843,3.519c-2.483,0.475-3.789,0.799-5.549,1.371c-4.253,1.382-7.525,3.325-10.061,6.002
			c-1.663,1.738-2.461,3.055-4.048,6.585c-0.486,1.09-1.047,2.256-1.252,2.58c-0.194,0.335-1.015,1.306-1.824,2.148
			c-1.641,1.706-2.105,2.31-3.347,4.372c-0.464,0.777-0.874,1.349-0.896,1.274c-0.054-0.162-0.626-3.671-0.842-5.225
			c-0.194-1.328-0.184-6.596,0-7.881c0.443-2.947,1.285-6.056,2.472-9.068c1.101-2.807,3.347-7.179,5.009-9.781
			c0.443-0.691,0.669-0.918,1.522-1.511c1.49-1.036,1.932-1.285,3.703-2.084c2.926-1.317,4.696-2.44,6.121-3.897
			c1.986-2.019,2.947-4.232,3.228-7.449c0.173-1.846,0.032-3.8-0.54-8.215c-0.583-4.383-0.702-6.272-0.54-8.788
			c0.162-2.656,0.14-2.764-0.367-1.684c-0.572,1.22-1.511,3.703-1.943,5.139c-0.669,2.224-0.853,3.433-1.101,7.341
			c-0.194,3.055-0.389,4.545-0.777,6.207c-1.188,5.063-3.724,8.669-8.345,11.864c-0.864,0.594-1.652,1.242-1.932,1.565
			c-0.259,0.313-1.198,1.112-2.105,1.781c-3.854,2.882-8.712,7.784-11.443,11.551c-1.954,2.688-4.059,6.834-5.074,9.975
			c-1.144,3.53-1.274,6.585-0.529,12.242c0.335,2.559,0.421,6.315,0.162,7.481c-0.756,3.411-1.965,5.506-5.959,10.31
			c-7.989,9.597-10.72,14.099-11.983,19.756c-0.281,1.274-0.302,1.328-0.432,1.026c-0.065-0.184-0.464-1.295-0.885-2.483
			c-0.421-1.188-1.047-2.818-1.403-3.617c-0.356-0.799-0.713-1.641-0.799-1.868c-0.281-0.766-0.389-2.548-0.345-5.959l0.032-3.347
			l-0.432-1.889c-0.399-1.77-0.421-1.997-0.421-3.563c0.011-3.714,1.242-9.619,3.034-14.563c1.609-4.48,3.077-7.201,7.33-13.635
			c1.9-2.861,4.631-7.082,4.955-7.643c0.043-0.086-0.68,0.594-1.63,1.511c-0.939,0.928-3.455,3.196-5.581,5.052
			c-2.116,1.857-4.48,3.994-5.236,4.75c-4.998,4.988-6.931,9.209-6.931,15.114c0,3.671,0.605,6.359,2.451,10.979
			c1.403,3.498,1.436,3.649,1.436,6.035c0.011,1.781,0.043,2.494,0.27,4.761l0.076,0.756l-0.723-1.134
			c-1.069-1.663-2.472-3.595-4.847-6.693c-3.163-4.102-4.631-6.337-6.046-9.165c-2.99-5.981-3.541-11.497-1.684-17.176
			c1.069-3.293,3.001-5.97,6.467-8.982c2.127-1.846,3.476-2.785,10.429-7.222c8.885-5.689,13.333-9.856,16.118-15.103
			c1.436-2.699,2.256-5.128,3.811-11.335c0.788-3.152,0.885-3.66,0.972-5.042c0.205-3.228,1.166-7.492,2.375-10.537
			c0.993-2.505,1.868-3.897,4.318-6.942c3.422-4.243,4.491-6.046,6.79-11.487c1.997-4.739,2.429-5.625,4.113-8.496
			c0.464-0.81,0.853-1.49,0.853-1.501c0-0.194-0.432,0.14-1.609,1.22c-0.756,0.702-2.17,1.954-3.142,2.785
			c-4.567,3.865-7.114,6.413-9.738,9.716c-2.677,3.39-4.124,6.79-4.674,11.012c-0.205,1.555-0.237,5.355-0.054,7.827
			c0.281,3.789,0.119,6.618-0.453,8.205c-0.356,0.972-1.954,4.167-2.774,5.549c-2.148,3.584-5.29,7.33-8,9.5
			c-2.72,2.17-6.078,3.962-10.904,5.786c-1.447,0.551-5.139,1.889-6.1,2.213c-0.119,0.043,0.151-0.162,0.594-0.443
			c3.249-2.084,8.205-5.743,10.634-7.859c2.785-2.418,4.901-4.642,6.337-6.661c0.885-1.242,2.008-3.465,2.44-4.847
			c0.561-1.781,0.68-2.526,0.745-4.642c0.097-3.411-0.248-5.117-2.289-11.173c-1.619-4.826-1.922-5.819-2.602-8.583
			c-0.54-2.17-0.702-2.591-1.026-2.591c-0.108,0-0.173,0.432-0.324,1.976c-0.194,2.138-0.065,6.974,0.281,10.277
			c0.345,3.293,0.475,7.773,0.281,9.727c-0.313,3.088-1.101,5.948-2.623,9.489c-1.144,2.656-2.051,4.318-3.519,6.477
			c-1.641,2.418-2.472,3.271-4.081,4.221c-0.669,0.399-1.306,0.896-1.997,1.576c-1.522,1.501-2.591,2.202-5.711,3.724
			c-1.511,0.745-3.185,1.63-3.724,1.976c-0.529,0.335-1.36,0.853-1.824,1.134c-2.191,1.339-5.106,3.94-6.326,5.646
			c-0.27,0.367-0.497,0.626-0.518,0.561c-0.022-0.065,0.032-1.069,0.13-2.245c0.097-1.166,0.227-4.221,0.281-6.769
			c0.054-2.559,0.13-4.912,0.162-5.236c0.032-0.324,0.097-1.274,0.162-2.105c0.065-0.831,0.205-2.051,0.324-2.699
			c0.108-0.659,0.238-1.533,0.27-1.943c0.043-0.421,0.14-1.101,0.216-1.511c0.086-0.421,0.184-1.198,0.216-1.727
			c0.313-4.48,2.008-11.487,3.714-15.276c0.702-1.576,1.501-2.99,3.411-6.1c2.03-3.303,2.904-4.847,3.876-6.855
			c1.36-2.818,1.846-4.156,4.264-11.659c0.292-0.918,0.907-2.634,1.36-3.822c0.453-1.177,0.799-2.159,0.777-2.181
			c-0.054-0.054-4.761,4.977-6.877,7.352c-4.426,4.966-6.218,7.427-7.924,10.86c-1.781,3.573-2.839,7.114-3.357,11.227
			c-0.281,2.278-0.41,6.996-0.345,13.214c0.054,4.793,0.032,6.056-0.097,7.071c-0.151,1.166-0.54,3.066-0.669,3.282
			c-0.032,0.065-0.151-0.421-0.259-1.08c-0.475-2.85-1.609-6.65-2.882-9.63c-1.857-4.34-3.822-7.611-6.812-11.357
			c-0.453-0.561-0.982-1.285-1.177-1.598c-0.194-0.313-0.443-0.626-0.551-0.702c-0.238-0.162-1.08-1.468-1.08-1.663
			c0-0.086-0.216-0.41-0.486-0.713c-0.928-1.069-1.609-2.915-1.878-5.096c-0.173-1.403-0.151-5.128,0.043-7.19
			c0.324-3.411,0.907-7.039,2.148-13.322c0.691-3.552,0.993-5.819,1.144-8.636c0.173-3.379,0.097-8.302-0.119-7.902
			c-0.054,0.086-0.367,1.295-0.691,2.677c-0.324,1.393-0.961,3.93-1.403,5.657c-3.573,13.829-3.973,15.794-3.973,19.972
			c-0.011,3.984,0.713,7.136,2.494,10.958c1.015,2.202,3.131,5.754,3.962,6.682c0.982,1.09,3.023,5.992,3.832,9.187
			c0.82,3.249,1.015,5.128,0.939,8.734c-0.097,4.577-0.734,7.838-3.422,17.618c-1.576,5.722-2.353,9.058-2.548,10.925
			c-0.043,0.399-0.108,0.756-0.151,0.777c-0.259,0.162-0.259-8.108,0-9.554c0.065-0.389,0.432-1.965,0.81-3.509
			c1.576-6.413,2.073-10.115,1.792-13.311c-0.313-3.476-1.058-5.43-4.081-10.709c-0.831-1.457-1.9-3.357-2.353-4.232
			c-0.896-1.684-1.274-2.245-1.414-2.105c-0.13,0.13,0.216,3.39,0.594,5.592c0.184,1.036,0.626,3.196,0.982,4.804
			c1.22,5.365,2.04,9.91,2.58,14.185c0.561,4.394,0.583,8.356,0.065,11.497l-0.302,1.835l0.13,2.861
			c0.119,2.85,0.356,5.096,0.756,7.233c0.108,0.626,0.238,1.835,0.27,2.699c0.13,3.39,0.864,7.406,2.17,11.875
			c1.371,4.707,2.872,8.323,7.006,16.982l0.713,1.49l-0.561-0.626c-2.051-2.289-3.541-3.66-6.207-5.678
			c-1.846-1.414-2.861-2.645-4.038-4.869c-1.112-2.105-1.339-3.066-1.77-7.438c-0.421-4.21-0.756-5.819-1.727-8.215
			c-0.939-2.321-2.31-4.383-5.29-7.956c-0.766-0.928-1.814-2.202-2.31-2.839c-0.486-0.637-0.918-1.134-0.939-1.112
			s0.076,0.788,0.227,1.706c0.259,1.619,0.507,3.606,1.08,8.518c0.95,8.269,1.922,11.044,5.344,15.33
			c1.22,1.511,4.469,4.761,6.207,6.186c0.777,0.637,1.695,1.501,2.051,1.911c0.529,0.626,0.82,0.853,1.576,1.252
			c2.321,1.209,5.581,4.523,7.924,8.075c1.371,2.094,1.749,2.828,2.688,5.203c1.824,4.631,2.861,8.529,3.379,12.609
			c0.259,2.019,0.248,6.499,0,8.593c-0.659,5.301-1.9,9.414-4.286,14.142c-2.192,4.329-5.009,8.41-8.421,12.199
			c-0.432,0.475-0.432,0.475-0.367,0.162c0.032-0.184,0.518-1.274,1.069-2.429c1.382-2.893,1.76-3.876,2.634-6.92
			c0.421-1.447,1.209-3.897,1.749-5.441c2.019-5.732,2.364-7.082,2.742-10.709c0.518-4.847-0.173-8.744-2.073-11.767
			c-0.831-1.328-1.166-1.706-4.351-4.944c-3.638-3.703-4.459-4.761-8.205-10.58c-0.443-0.691-0.82-1.209-0.842-1.144
			c-0.043,0.13,0.335,2.429,0.691,4.167c0.54,2.623,1.349,5.128,2.472,7.622c0.669,1.468,1.058,2.224,3.034,5.786
			c2.235,4.038,3.217,6.1,4.038,8.561c1.349,4.048,1.965,9.802,1.339,12.523c-0.086,0.389-0.324,1.231-0.518,1.889
			c-0.205,0.648-0.453,1.641-0.551,2.192c-0.378,2.159-1.587,5.247-4.275,10.882l-1.619,3.422l-1.285,1.468
			c-2.785,3.185-4.966,6.272-6.305,8.96c-0.691,1.371-1.587,3.681-2.299,5.938c-0.572,1.835-0.626,1.965-0.713,1.619
			c-0.054-0.205-0.119-2.483-0.14-5.063c-0.032-3.509-0.086-4.836-0.205-5.29c-0.076-0.324-0.248-1.144-0.378-1.824
			c-0.227-1.22-0.227-1.263-0.097-8.421c0.173-9.543,0.011-26.849-0.248-26.59c-0.054,0.054-0.248,0.529-0.421,1.058
			c-0.367,1.069-0.626,1.555-2.181,4.146c-1.954,3.228-2.99,5.409-3.735,7.838c-0.572,1.824-0.777,3.066-0.842,5.063
			c-0.043,1.565-0.022,2.03,0.173,3.174c0.464,2.71,1.706,5.732,3.325,8.075c0.464,0.669,1.198,1.727,1.63,2.353
			c1.414,2.03,1.738,3.012,1.976,5.981c0.13,1.598,0.065,8.896-0.076,9.565c-0.065,0.27-0.216-0.086-0.918-2.213
			c-1.349-4.124-2.235-5.992-4.253-9.014c-1.22-1.824-2.429-3.39-4.146-5.355l-1.285-1.468l-1.619-3.39
			c-2.958-6.197-3.94-8.755-4.394-11.379c-0.086-0.54-0.313-1.414-0.486-1.943c-0.173-0.54-0.389-1.285-0.475-1.673
			c-0.497-2.148-0.227-6.359,0.637-9.997c0.831-3.541,1.878-5.959,5.042-11.648c2.742-4.944,3.832-7.417,4.718-10.752
			c0.507-1.922,1.295-6.186,1.177-6.315c-0.032-0.022-0.41,0.518-0.853,1.198c-3.714,5.786-4.567,6.898-8.194,10.58
			c-1.576,1.598-3.066,3.152-3.314,3.455c-1.209,1.49-2.17,3.379-2.677,5.236c-1.166,4.329-0.605,10.601,1.468,16.301
			c0.982,2.72,2.051,6.002,2.677,8.161c0.756,2.656,1.209,3.854,2.407,6.305c0.81,1.663,1.317,2.904,1.242,2.99
			c-0.022,0.011-0.551-0.561-1.188-1.295c-6.056-6.985-10.051-14.801-11.454-22.423c-1.479-8.075-0.626-15.254,2.893-24.171
			c1.188-3.001,2.084-4.966,5.463-11.994c2.289-4.772,3.368-7.201,4.588-10.31c2.407-6.132,3.93-12.631,4.113-17.543
			c0.032-0.864,0.162-2.073,0.27-2.699c0.399-2.148,0.637-4.383,0.756-7.233l0.119-2.861l-0.291-1.835
			c-0.518-3.142-0.497-7.104,0.065-11.497c0.54-4.264,1.457-9.317,2.677-14.628c0.615-2.699,1.101-5.452,1.349-7.676
			c0.194-1.749,0.216-2.31,0.065-2.31s-0.648,0.788-1.447,2.321c-0.41,0.766-1.403,2.569-2.224,3.994
			c-1.976,3.455-2.742,5.009-3.293,6.693c-0.669,2.008-0.853,3.325-0.842,5.884c0,3.217,0.41,5.84,1.77,11.335
			c0.367,1.457,0.723,3.012,0.82,3.455c0.281,1.49,0.324,9.954,0.032,9.77c-0.043-0.022-0.108-0.378-0.151-0.777
			c-0.194-1.932-0.853-4.718-2.699-11.476c-2.613-9.597-3.174-12.512-3.271-17.068c-0.097-4.383,0.356-7.373,1.749-11.433
			c0.885-2.58,2.364-5.754,3.023-6.488c0.82-0.918,2.623-3.93,3.8-6.359c2.397-4.944,3.12-9.36,2.451-14.898
			c-0.345-2.807-0.961-5.484-3.66-15.924c-0.443-1.727-1.101-4.372-1.468-5.884c-0.356-1.511-0.691-2.818-0.745-2.904
			C239.377,25.619,239.302,26.342,239.258,27.378L239.258,27.378z M207.681,97.82c0,0.065-0.043,0.076-0.108,0.043
			c-0.054-0.032-0.108-0.119-0.108-0.173c0-0.065,0.054-0.076,0.108-0.043C207.638,97.679,207.681,97.766,207.681,97.82z
			 M292.448,97.83c-0.076,0.076-0.13,0.086-0.13,0.022c0-0.151,0.13-0.281,0.205-0.205C292.546,97.679,292.513,97.766,292.448,97.83
			z M354.836,184.897c-0.13,0.216-0.151,0.151-0.054-0.13c0.043-0.097,0.097-0.151,0.119-0.119
			C354.933,184.67,354.901,184.789,354.836,184.897z M262.75,215.125c-0.13,0.216-0.151,0.151-0.054-0.13
			c0.043-0.097,0.097-0.151,0.119-0.119C262.847,214.898,262.814,215.017,262.75,215.125z"/>
		<path style="fill-rule:evenodd;clip-rule:evenodd;fill:#0F0B0D;" d="M164.499,39.048c0,0.054,0.119,0.464,0.27,0.907
			c0.518,1.511,1.36,4.394,1.619,5.56c0.464,2.105,0.605,3.552,0.648,7.114c0.054,3.876,0.194,5.117,0.788,6.909
			c0.907,2.764,2.656,5.398,5.419,8.151c0.68,0.691,2.407,2.278,3.832,3.53c2.785,2.44,4.113,3.768,4.955,4.912
			c0.291,0.399,0.551,0.723,0.561,0.702c0.011-0.011-0.065-0.702-0.173-1.533c-0.248-1.922-0.648-3.768-1.252-5.862
			c-1.134-3.919-2.321-6.153-4.966-9.36c-3.53-4.275-4.728-6.305-7.33-12.404c-1.576-3.703-2.418-5.452-3.563-7.406
			C164.52,38.919,164.499,38.886,164.499,39.048z"/>
		<path style="fill-rule:evenodd;clip-rule:evenodd;fill:#0F0B0D;" d="M334.605,40.409c-1.198,2.073-1.932,3.595-3.53,7.363
			c-2.537,5.981-3.724,8-7.276,12.307c-0.637,0.766-1.501,1.9-1.911,2.515c-1.749,2.559-3.077,6.11-3.984,10.623
			c-0.194,1.015-0.551,3.552-0.486,3.617c0.011,0.022,0.259-0.302,0.551-0.702c0.842-1.144,2.17-2.472,4.955-4.912
			c1.425-1.252,3.174-2.861,3.886-3.584c2.753-2.774,4.448-5.322,5.365-8.097c0.594-1.792,0.734-3.034,0.788-6.909
			c0.065-5.042,0.292-6.391,1.9-11.541c0.356-1.123,0.626-2.051,0.605-2.073C335.447,38.994,335.069,39.62,334.605,40.409
			L334.605,40.409z"/>
		<path style="fill-rule:evenodd;clip-rule:evenodd;fill:#0F0B0D;" d="M207.465,41.704c0,0.043,0.14,0.572,0.324,1.166
			c0.713,2.407,1.047,6.866,0.864,11.325c-0.054,1.339-0.13,2.645-0.162,2.915c-0.032,0.27-0.108,1.414-0.162,2.548
			c-0.216,4.383,0.302,7.492,1.76,10.634s3.573,5.592,7.6,8.809c3.962,3.152,5.56,4.696,6.747,6.51l0.54,0.81l-0.076-0.648
			c-0.194-1.781-1.047-5.743-1.792-8.399c-0.993-3.519-2.04-5.862-4.264-9.522c-0.756-1.252-1.77-2.926-2.256-3.724
			c-1.803-2.98-2.774-4.912-3.962-7.881c-0.529-1.328-1.004-2.699-2.839-8.313C208.987,45.483,207.487,41.434,207.465,41.704z"/>
		<path style="fill-rule:evenodd;clip-rule:evenodd;fill:#0F0B0D;" d="M292.006,42.892c-0.993,2.559-1.533,4.124-2.537,7.255
			c-2.364,7.471-3.314,9.543-7.568,16.463c-3.163,5.16-4.135,7.341-5.344,12.037c-0.734,2.85-1.511,6.769-1.511,7.622
			c0,0.086,0.237-0.216,0.529-0.659c1.155-1.792,2.753-3.336,6.747-6.521c4.232-3.379,6.391-5.959,7.838-9.381
			c1.565-3.692,1.824-6.51,1.285-13.505c-0.162-2.019-0.151-6.985,0-8.809c0.162-1.846,0.475-3.627,0.831-4.75
			c0.151-0.486,0.259-0.896,0.237-0.918C292.492,41.704,292.265,42.222,292.006,42.892z"/>
		<path style="fill-rule:evenodd;clip-rule:evenodd;fill:#0F0B0D;" d="M198.257,57.001c0.043,0.389,0.086,1.986,0.076,3.563
			c0,2.397-0.065,3.465-0.367,6.585c-0.443,4.577-0.507,8.421-0.173,10.634c0.842,5.581,3.886,12.426,7.438,16.733
			c0.68,0.831,2.127,2.073,2.127,1.824c0-0.032-0.162-0.345-0.367-0.68c-1.231-2.04-2.051-4.329-2.386-6.65
			c-0.184-1.231-0.205-3.811-0.054-5.722c0.54-6.909,0.281-10.364-1.101-14.898c-0.54-1.781-1.436-3.93-2.947-7.071
			c-0.777-1.63-1.609-3.411-1.835-3.94c-0.227-0.54-0.432-0.993-0.453-1.026C198.181,56.321,198.203,56.613,198.257,57.001z"/>
		<path style="fill-rule:evenodd;clip-rule:evenodd;fill:#0F0B0D;" d="M301.333,57.358c-0.227,0.551-1.058,2.332-1.835,3.962
			c-2.99,6.218-3.973,9.5-4.264,14.358c-0.119,1.857-0.108,2.386,0.184,6.855c0.205,3.347,0.151,5.905-0.184,7.449
			c-0.41,1.954-1.242,4.07-2.213,5.657c-0.205,0.345-0.378,0.669-0.378,0.702c0,0.216,1.371-0.928,1.976-1.652
			c3.379-3.994,6.456-10.601,7.406-15.88c0.551-3.023,0.551-5.786,0.011-11.659c-0.389-4.146-0.497-7.147-0.345-9.23
			c0.065-0.831,0.108-1.522,0.086-1.533C301.765,56.375,301.571,56.807,301.333,57.358z"/>
		<path style="fill-rule:evenodd;clip-rule:evenodd;fill:#0F0B0D;" d="M152.775,62.097c0.615,1.36,1.565,3.897,1.954,5.279
			c0.529,1.824,0.777,3.476,0.972,6.521c0.27,4.113,0.572,6.078,1.252,8.313c0.432,1.425,1.522,3.649,2.375,4.858
			c1.144,1.609,3.044,3.465,4.955,4.847c0.086,0.065,0.043-0.054-0.097-0.259c-0.453-0.702-1.09-2.148-1.295-2.936
			c-0.475-1.857-0.54-3.595-0.27-7.222c0.27-3.617,0.119-5.376-0.669-7.546c-0.788-2.213-2.515-4.826-5.333-8.108
			c-1.457-1.695-4.027-4.523-4.113-4.523C152.462,61.32,152.58,61.676,152.775,62.097z"/>
		<path style="fill-rule:evenodd;clip-rule:evenodd;fill:#0F0B0D;" d="M345.789,63.123c-3.163,3.53-4.502,5.16-5.786,7.104
			c-1.501,2.267-2.299,4.189-2.613,6.283c-0.205,1.328-0.205,2.332,0,5.052c0.259,3.563,0.194,5.257-0.281,7.125
			c-0.216,0.864-0.831,2.245-1.295,2.969c-0.14,0.205-0.184,0.324-0.097,0.259c1.911-1.382,3.811-3.239,4.955-4.847
			c0.853-1.209,1.943-3.433,2.375-4.858c0.68-2.235,0.982-4.199,1.252-8.313c0.194-3.044,0.443-4.696,0.972-6.521
			c0.389-1.382,1.339-3.919,1.954-5.279c0.194-0.421,0.313-0.777,0.27-0.777S346.686,62.129,345.789,63.123z"/>
		<path style="fill-rule:evenodd;clip-rule:evenodd;fill:#0F0B0D;" d="M246.222,76.164c-0.011,1.857-0.659,5.851-1.684,10.418
			c-1.393,6.153-2.343,11.832-2.753,16.301c-0.184,1.997-0.162,5.959,0.022,7.179l0.151,0.972l0.205-0.788
			c0.389-1.598,0.864-2.526,3.023-5.851c2.213-3.411,2.882-5.096,3.487-8.69c0.302-1.846,0.27-6.639-0.054-8.906
			c-0.421-2.839-1.976-10.407-2.235-10.893C246.232,75.635,246.232,75.635,246.222,76.164z"/>
		<path style="fill-rule:evenodd;clip-rule:evenodd;fill:#0F0B0D;" d="M253.595,75.948c-0.194,0.486-0.281,0.853-1.101,4.88
			c-1.209,5.884-1.349,6.942-1.349,10.612c-0.011,2.505,0.022,3.303,0.184,4.264c0.637,3.832,1.425,5.657,4.167,9.759
			c1.349,2.008,1.986,3.303,2.343,4.782l0.205,0.788l0.151-0.972c0.184-1.22,0.205-5.182,0.022-7.179
			c-0.41-4.469-1.36-10.148-2.753-16.301c-1.047-4.642-1.49-7.406-1.717-10.58l-0.022-0.378L253.595,75.948z"/>
		<path style="fill-rule:evenodd;clip-rule:evenodd;fill:#0F0B0D;" d="M112.896,92.994c0,0.162,0.194,1.015,0.421,1.889
			c1.036,3.854,1.36,6.121,1.684,11.724c0.27,4.815,0.561,6.693,1.349,8.636c1.231,3.098,4.307,6.175,8.69,8.701
			c0.918,0.529,4.178,2.148,4.318,2.148c0.022,0-0.291-0.81-0.702-1.814c-0.399-0.993-1.231-3.163-1.835-4.826
			c-2.44-6.704-3.671-9.5-6.477-14.682c-2.051-3.8-3.573-6.315-5.97-9.932C112.863,92.562,112.896,92.605,112.896,92.994z"/>
		<path style="fill-rule:evenodd;clip-rule:evenodd;fill:#0F0B0D;" d="M385.312,95.326c-1.911,2.904-3.142,4.901-4.383,7.125
			c-3.714,6.65-5.063,9.608-7.762,17.035c-0.659,1.803-1.501,4.027-1.878,4.944c-0.378,0.918-0.669,1.663-0.648,1.663
			c0.14,0,3.401-1.63,4.318-2.148c3.692-2.127,6.521-4.707,8.01-7.298c1.295-2.245,1.706-4.297,2.03-10.04
			c0.324-5.603,0.691-8.172,1.738-11.951C387.385,92.282,387.288,92.325,385.312,95.326z"/>
		<path style="fill-rule:evenodd;clip-rule:evenodd;fill:#0F0B0D;" d="M94.003,105.873c0,0.076,0.119,0.615,0.27,1.188
			c0.324,1.241,0.723,3.325,0.993,5.214c0.281,2.051,0.259,6.79-0.065,10.904c-0.302,3.919-0.281,7.46,0.076,9.176
			c0.615,2.958,1.868,5.236,3.951,7.201c1.717,1.619,3.789,2.828,8.021,4.674c1.393,0.605,2.084,0.972,3.001,1.565
			c0.27,0.184,0.238,0.119-0.238-0.486c-1.101-1.403-1.846-2.677-2.407-4.102c-0.939-2.397-1.349-4.34-2.429-11.497
			c-0.853-5.635-1.673-8.96-3.012-12.177c-1.393-3.347-3.66-6.79-6.693-10.148c-0.486-0.54-1.004-1.123-1.166-1.306
			S94.014,105.808,94.003,105.873z"/>
		<path style="fill-rule:evenodd;clip-rule:evenodd;fill:#0F0B0D;" d="M404.863,107.007c-1.976,2.181-3.714,4.448-4.955,6.477
			c-2.58,4.21-3.93,8.496-5.074,16.172c-0.723,4.772-0.939,6.1-1.274,7.611c-0.756,3.487-1.727,5.678-3.573,8.043
			c-0.475,0.605-0.507,0.669-0.238,0.486c0.918-0.594,1.609-0.961,3.001-1.565c4.232-1.846,6.305-3.055,8.021-4.674
			c2.084-1.965,3.336-4.243,3.951-7.201c0.356-1.706,0.378-5.257,0.076-9.176c-0.292-3.746-0.345-8.777-0.119-10.472
			c0.27-1.932,0.68-4.156,1.004-5.484c0.184-0.734,0.313-1.349,0.291-1.371C405.964,105.83,405.457,106.348,404.863,107.007z"/>
		<path style="fill-rule:evenodd;clip-rule:evenodd;fill:#0F0B0D;" d="M191.704,109.889c0,0.13,0.302,1.004,0.659,1.932
			c1.306,3.325,2.17,6.175,2.483,8.172c0.216,1.317,0.173,4.361-0.065,6.315c-0.151,1.155-0.216,2.289-0.205,3.671
			c0,1.803,0.032,2.094,0.291,3.055c0.745,2.774,2.224,4.966,6.283,9.306c2.127,2.278,3.271,3.606,3.94,4.577
			c0.486,0.723,1.403,2.548,1.403,2.807c0.011,0.421,0.205-0.227,0.475-1.544c0.324-1.63,0.356-2.839,0.119-4.815
			c-0.745-6.121-2.602-12.35-5.182-17.435c-1.155-2.278-1.997-3.66-5.506-9.014c-1.619-2.461-3.314-5.085-3.778-5.83
			C191.628,109.501,191.704,109.587,191.704,109.889L191.704,109.889z"/>
		<path style="fill-rule:evenodd;clip-rule:evenodd;fill:#0F0B0D;" d="M307.465,110.958c-0.432,0.691-1.49,2.332-2.343,3.638
			c-0.853,1.306-2.213,3.368-3.012,4.588c-3.595,5.495-5.171,8.615-6.78,13.419c-0.788,2.386-1.609,5.678-2.03,8.172
			c-0.648,3.811-0.691,5.193-0.27,7.363c0.259,1.339,0.464,2.03,0.475,1.587c0-0.259,0.918-2.084,1.403-2.807
			c0.669-0.972,1.814-2.31,3.94-4.577c4.038-4.318,5.538-6.542,6.283-9.306c0.259-0.961,0.291-1.242,0.291-3.109
			c0-1.403-0.065-2.548-0.205-3.617c-0.27-2.105-0.281-5.139-0.011-6.639c0.389-2.181,1.004-4.167,2.353-7.654
			c0.41-1.069,0.734-2.03,0.712-2.138C308.253,109.76,307.962,110.148,307.465,110.958z"/>
		<path style="fill-rule:evenodd;clip-rule:evenodd;fill:#0F0B0D;" d="M245.509,117.36c-0.032,0.065-0.108,0.475-0.162,0.907
			c-0.043,0.432-0.281,1.609-0.518,2.602c-0.68,2.893-1.706,7.946-1.943,9.597c-0.432,2.98-0.399,5.625,0.097,8.01
			c1.015,4.869,3.94,8.161,9.241,10.407c0.669,0.291,2.807,1.036,4.761,1.673c1.943,0.637,3.617,1.177,3.703,1.209
			c0.291,0.097-0.777-0.95-1.889-1.846c-1.522-1.231-4.405-4.092-5.732-5.678c-3.325-3.973-4.621-6.974-5.43-12.588
			c-0.119-0.831-0.389-3.066-0.605-4.966c-0.335-3.044-0.766-6.229-1.155-8.669C245.757,117.273,245.671,117.111,245.509,117.36
			L245.509,117.36z"/>
		<path style="fill-rule:evenodd;clip-rule:evenodd;fill:#0F0B0D;" d="M128.506,142.136c-0.097,0.086-0.173,0.238-0.173,0.324
			c0,0.162,0.054,0.184,1.457,0.432c1.943,0.335,4.081,0.972,6.423,1.878c0.507,0.205,2.688,1.252,4.858,2.353
			c6.272,3.174,10.072,4.847,13.117,5.808c1.241,0.378,11.519,2.969,11.573,2.915c0.022-0.011-0.248-0.216-0.583-0.453
			c-0.853-0.583-1.932-1.663-3.433-3.444c-1.673-1.986-3.541-3.822-4.804-4.728c-1.803-1.285-4.307-2.386-6.898-3.044
			c-3.552-0.896-6.348-1.252-13.613-1.727c-2.289-0.151-4.685-0.324-5.344-0.378C129.348,141.92,128.7,141.931,128.506,142.136z"/>
		<path style="fill-rule:evenodd;clip-rule:evenodd;fill:#0F0B0D;" d="M368.655,142.082c-0.551,0.054-2.861,0.216-5.128,0.367
			c-5.786,0.389-7.136,0.518-9.943,0.982c-4.61,0.766-7.978,1.976-10.526,3.789c-1.252,0.907-3.12,2.731-4.815,4.728
			c-1.533,1.814-2.591,2.872-3.422,3.444c-0.335,0.238-0.605,0.443-0.583,0.453c0.076,0.086,10.925-2.699,12.221-3.131
			c3.131-1.058,6.499-2.559,12.091-5.409c4.005-2.04,4.998-2.483,7.179-3.239c1.63-0.561,3.044-0.928,4.48-1.188
			c1.414-0.248,1.457-0.259,1.457-0.421C371.667,141.952,371.008,141.877,368.655,142.082z"/>
		<path style="fill-rule:evenodd;clip-rule:evenodd;fill:#0F0B0D;" d="M76.299,151.992c0,0.162,0.302,0.356,1.598,0.982
			c2.418,1.177,4.21,2.353,7.902,5.171c3.519,2.699,4.869,3.595,7.028,4.675c4.426,2.224,9.802,2.688,14.801,1.285
			c0.626-0.184,2.353-0.766,3.832-1.285c3.196-1.155,3.746-1.328,5.16-1.695c2.72-0.702,4.718-0.756,7.179-0.194
			c0.227,0.043,0.194,0-0.173-0.27c-0.238-0.184-0.864-0.605-1.371-0.928c-1.932-1.209-5.916-2.235-13.408-3.465
			c-6.121-1.015-12.383-1.565-17.705-1.565c-6.305,0-9.792-0.637-14.434-2.634C76.482,151.97,76.299,151.938,76.299,151.992z"/>
		<path style="fill-rule:evenodd;clip-rule:evenodd;fill:#0F0B0D;" d="M422.892,152.24c-2.688,1.155-5.635,1.932-8.583,2.245
			c-0.561,0.065-3.044,0.162-5.506,0.216c-7.244,0.162-11.573,0.551-18.007,1.619c-7.082,1.166-11.163,2.235-12.998,3.379
			c-1.241,0.777-1.922,1.295-1.598,1.22c1.393-0.302,2.418-0.41,3.617-0.356c2.224,0.097,4.059,0.572,8.701,2.235
			c4.761,1.716,6.445,2.073,9.651,2.084c2.256,0,3.962-0.248,5.959-0.853c3.044-0.918,5.376-2.278,10.072-5.884
			c3.671-2.807,5.668-4.113,8.118-5.279c1.036-0.497,1.49-0.799,1.371-0.907C423.669,151.927,423.302,152.057,422.892,152.24z"/>
		<path style="fill-rule:evenodd;clip-rule:evenodd;fill:#0F0B0D;" d="M255.786,160.067c-0.032,0.162-0.184,1.08-0.335,2.03
			s-0.443,2.623-0.648,3.724c-0.766,4.081-1.026,6.434-1.026,9.23c0,4.901,1.08,8.842,3.357,12.253
			c0.896,1.349,3.109,3.563,5.279,5.301c2.062,1.641,3.055,2.613,3.714,3.627c0.561,0.874,0.648,1.069,0.982,2.17l0.237,0.788
			l0.205-0.842c0.281-1.134,0.281-4.556,0-6.456c-0.723-4.977-1.932-8.226-5.344-14.337c-3.757-6.736-4.977-9.997-5.894-15.729
			c-0.173-1.036-0.345-1.932-0.389-1.976C255.884,159.797,255.819,159.894,255.786,160.067z"/>
		<path style="fill-rule:evenodd;clip-rule:evenodd;fill:#0F0B0D;" d="M243.749,161.471c-0.896,5.862-2.127,9.165-5.981,16.118
			c-2.613,4.696-3.8,7.417-4.556,10.439c-0.982,3.876-1.295,8.151-0.756,10.396l0.194,0.799l0.238-0.799
			c0.313-1.09,0.497-1.49,1.036-2.289c0.637-0.939,1.695-1.965,3.66-3.53c2.17-1.738,4.383-3.951,5.279-5.301
			c2.278-3.411,3.357-7.352,3.357-12.253c0-2.796-0.205-4.707-0.972-8.906c-0.238-1.274-0.551-3.098-0.702-4.048
			c-0.335-2.073-0.356-2.213-0.464-2.213C244.041,159.884,243.89,160.596,243.749,161.471z"/>
		<path style="fill-rule:evenodd;clip-rule:evenodd;fill:#0F0B0D;" d="M172.585,165.087c0.928,1.652,2.267,5.236,2.915,7.805
			c1.328,5.301,1.457,9.036,0.605,17.489c-0.432,4.307-0.702,7.298-0.691,7.827v0.378l0.281-0.54
			c0.151-0.302,0.799-1.414,1.436-2.483c3.131-5.29,4.156-7.881,4.286-10.86c0.108-2.537-0.302-4.718-1.436-7.579
			c-1.209-3.077-2.839-5.862-6.272-10.731C172.412,164.547,172.045,164.116,172.585,165.087z"/>
		<path style="fill-rule:evenodd;clip-rule:evenodd;fill:#0F0B0D;" d="M327.491,164.709c-0.27,0.324-3.001,4.232-3.703,5.322
			c-3.023,4.674-4.696,8.626-5.128,12.134c-0.184,1.436-0.086,3.735,0.205,4.858c0.605,2.31,1.706,4.674,3.865,8.291
			c0.551,0.928,1.198,2.051,1.436,2.483c0.41,0.756,0.432,0.777,0.432,0.41c0-0.551-0.281-3.617-0.702-7.827
			c-0.691-6.801-0.713-10.137-0.119-13.991c0.594-3.778,2.181-8.712,3.638-11.303C327.739,164.504,327.761,164.396,327.491,164.709z
			"/>
		<path style="fill-rule:evenodd;clip-rule:evenodd;fill:#0F0B0D;" d="M75.662,170.636c0.713,2.461,1.198,4.75,1.932,9.111
			c1.026,6.121,1.76,8.788,3.249,11.832c1.9,3.854,4.858,7.05,9.165,9.9c1.576,1.036,3.962,2.256,5.938,3.023
			c1.295,0.507,3.034,1.08,3.088,1.015c0.022-0.011-0.918-0.874-2.084-1.911c-4.696-4.178-6.747-6.521-9.446-10.774
			c-1.997-3.142-3.703-6.402-6.38-12.231c-2.386-5.182-3.638-7.622-5.02-9.759C75.424,169.794,75.413,169.783,75.662,170.636z"/>
		<path style="fill-rule:evenodd;clip-rule:evenodd;fill:#0F0B0D;" d="M423.54,171.403c-1.101,1.77-2.915,5.333-4.599,9.047
			c-4.599,10.105-7.946,15.492-12.404,19.918c-0.745,0.745-2.31,2.202-3.476,3.239c-1.177,1.036-2.116,1.9-2.094,1.911
			c0.054,0.065,1.781-0.507,3.088-1.015c5.765-2.235,10.731-6.035,13.71-10.483c2.256-3.39,3.411-6.909,4.642-14.272
			c0.723-4.297,1.36-7.276,1.986-9.317c0.086-0.281,0.14-0.507,0.119-0.507C424.49,169.924,424.047,170.593,423.54,171.403z"/>
		<path style="fill-rule:evenodd;clip-rule:evenodd;fill:#0F0B0D;" d="M103.234,177.027c2.969,1.522,4.059,2.192,7.017,4.297
			c1.932,1.371,3.26,2.159,4.534,2.688c2.192,0.918,3.714,1.177,6.747,1.177c2.515,0,3.757-0.13,8.097-0.864
			c4.588-0.777,5.268-0.885,6.801-1.058c2.451-0.291,4.728-0.184,5.862,0.248c0.389,0.151,0.335,0.054-0.583-1.069
			c-0.766-0.95-1.652-1.587-3.325-2.429c-3.239-1.619-6.996-2.451-12.534-2.764c-1.76-0.097-2.99-0.097-6.046,0.022
			c-5.732,0.227-11.454,0.205-13.225-0.054c-1.49-0.205-4.07-0.81-4.934-1.155c-0.291-0.108-0.561-0.205-0.605-0.205
			S101.992,176.39,103.234,177.027z"/>
		<path style="fill-rule:evenodd;clip-rule:evenodd;fill:#0F0B0D;" d="M398.44,176.034c-0.68,0.302-3.584,0.993-5.02,1.198
			c-1.77,0.248-7.503,0.27-13.225,0.043c-3.055-0.119-4.275-0.119-6.024-0.022c-5.571,0.324-9.327,1.144-12.555,2.774
			c-1.9,0.95-2.569,1.457-3.541,2.688c-0.713,0.907-0.734,0.939-0.367,0.799c1.576-0.605,4.772-0.54,8.993,0.184
			c7.071,1.22,8.572,1.425,10.958,1.511c2.429,0.097,4.653-0.162,6.51-0.788c1.727-0.572,3.271-1.457,6.499-3.735
			c2.019-1.436,3.681-2.429,6.207-3.714c1.188-0.605,2.116-1.101,2.051-1.101C398.872,175.872,398.645,175.948,398.44,176.034z"/>
		<path style="fill-rule:evenodd;clip-rule:evenodd;fill:#0F0B0D;" d="M95.407,180.201c0,0.108,2.051,6.575,2.613,8.237
			c1.144,3.39,2.267,5.387,4.038,7.147c1.868,1.857,4.005,2.839,6.207,2.839c1.349,0,3.055-0.421,6.154-1.544l1.047-0.367
			l-1.317-0.41c-5.819-1.835-8.82-3.444-11.767-6.305c-1.457-1.414-2.526-2.688-3.984-4.739c-1.069-1.501-1.533-2.256-2.548-4.124
			C95.612,180.492,95.407,180.158,95.407,180.201z"/>
		<path style="fill-rule:evenodd;clip-rule:evenodd;fill:#0F0B0D;" d="M403.848,181.475c-1.522,2.882-3.962,6.132-6.315,8.399
			c-2.936,2.828-5.894,4.405-11.692,6.229l-1.306,0.41l1.198,0.432c3.142,1.112,4.631,1.479,6.013,1.479
			c2.191,0,4.34-0.982,6.197-2.839c1.706-1.695,2.699-3.401,3.822-6.553c0.561-1.555,2.839-8.766,2.796-8.82
			C404.539,180.201,404.215,180.762,403.848,181.475z"/>
		<path style="fill-rule:evenodd;clip-rule:evenodd;fill:#0F0B0D;" d="M250.259,189.431c0.194,5.581,0.281,16.647,0.173,22.077
			c-0.184,9.846-0.184,9.63,0.043,10.828l0.205,1.069l0.184-0.756c0.238-1.036,0.713-2.008,1.641-3.336
			c0.432-0.626,1.166-1.684,1.63-2.353c1.619-2.343,2.861-5.365,3.325-8.075c0.194-1.144,0.227-1.609,0.173-3.174
			c-0.13-4.135-1.317-7.492-4.577-12.901c-1.522-2.537-1.803-3.066-2.17-4.102c-0.453-1.263-0.464-1.295-0.583-1.295
			C250.227,187.412,250.216,188.103,250.259,189.431z"/>
		<path style="fill-rule:evenodd;clip-rule:evenodd;fill:#0F0B0D;" d="M68.31,190.111c-0.086,0.151-0.054,0.594,0.108,1.641
			c0.119,0.788,0.486,3.379,0.81,5.754c0.637,4.567,0.972,6.467,1.403,7.902c1.468,4.847,5.311,9.306,12.091,14.023
			c3.12,2.17,3.984,2.818,4.847,3.617l0.831,0.766l-0.367-1.004c-1.209-3.325-2.742-6.38-4.642-9.219
			c-1.09-1.63-2.019-2.861-4.102-5.419c-3.509-4.318-4.923-6.413-7.471-11.087c-1.339-2.451-1.878-3.649-2.591-5.711
			C68.709,189.895,68.547,189.669,68.31,190.111z"/>
		<path style="fill-rule:evenodd;clip-rule:evenodd;fill:#0F0B0D;" d="M430.773,191.374c-0.713,2.062-1.252,3.26-2.591,5.711
			c-2.515,4.621-4.027,6.866-7.46,11.066c-2.094,2.58-3.023,3.8-4.124,5.463c-1.868,2.785-3.433,5.916-4.631,9.198l-0.367,1.004
			l0.831-0.766c0.853-0.799,1.684-1.425,4.847-3.627c6.812-4.75,10.623-9.165,12.091-14.013c0.432-1.436,0.767-3.336,1.403-7.902
			c0.324-2.375,0.691-4.966,0.81-5.754c0.162-1.047,0.194-1.49,0.108-1.641C431.453,189.669,431.291,189.895,430.773,191.374z"/>
		<path style="fill-rule:evenodd;clip-rule:evenodd;fill:#0F0B0D;" d="M182.484,206.542c1.209,3.152,1.555,4.307,2.785,9.273
			c1.738,7.017,2.872,10.839,4.351,14.714c1.306,3.401,2.634,6.197,4.016,8.431c0.734,1.188,1.846,2.785,1.911,2.721
			c0.032-0.022-0.011-0.302-0.086-0.626c-0.076-0.335-0.14-1.274-0.13-2.202c0-1.393,0.054-1.922,0.399-3.778
			c0.669-3.692,0.82-5.517,0.626-7.827c-0.216-2.451-0.626-4.005-1.576-5.992c-1.026-2.127-2.559-4.221-6.337-8.647
			c-2.677-3.12-3.66-4.34-5.052-6.197c-1.036-1.393-1.501-1.943-1.63-1.943C181.729,204.47,182.052,205.409,182.484,206.542z"/>
		<path style="fill-rule:evenodd;clip-rule:evenodd;fill:#0F0B0D;" d="M317.883,204.761c-0.151,0.173-0.723,0.907-1.274,1.652
			c-1.393,1.857-2.375,3.077-5.052,6.197c-6.143,7.201-7.481,9.673-7.913,14.639c-0.194,2.289-0.022,4.415,0.669,8.108
			c0.475,2.602,0.518,4.437,0.14,6.143c-0.054,0.27-0.054,0.259,0.216-0.054c0.972-1.123,2.904-4.448,4.038-6.909
			c2.213-4.826,3.8-9.759,6.067-18.882c1.209-4.88,1.619-6.229,2.839-9.381c0.378-0.993,0.669-1.803,0.626-1.803
			S318.034,204.599,317.883,204.761z"/>
		<path style="fill-rule:evenodd;clip-rule:evenodd;fill:#0F0B0D;" d="M110.089,215.6c0,0.367,0.302,0.864,2.159,3.487
			c2.181,3.088,3.584,4.815,5.139,6.337c3.239,3.152,6.315,4.675,12.296,6.089c4.599,1.08,5.732,1.371,7.373,1.9
			c0.928,0.302,2.159,0.777,2.72,1.047c0.561,0.27,1.069,0.518,1.123,0.54c0.162,0.086-0.659-1.349-1.511-2.623
			c-2.364-3.563-5.355-5.905-10.375-8.14c-1.468-0.648-3.023-1.252-6.51-2.494c-4.955-1.781-7.632-2.904-9.176-3.865
			c-0.659-0.41-1.846-1.339-3.044-2.375C110.1,215.352,110.089,215.362,110.089,215.6z"/>
		<path style="fill-rule:evenodd;clip-rule:evenodd;fill:#0F0B0D;" d="M388.832,216.258c-2.386,2.03-4.372,2.99-11.281,5.463
			c-3.53,1.263-5.096,1.868-6.564,2.515c-5.02,2.235-8.01,4.577-10.375,8.14c-0.853,1.274-1.673,2.699-1.511,2.634
			c0.054-0.032,0.507-0.259,1.015-0.507c0.507-0.259,1.727-0.723,2.71-1.047c1.738-0.561,2.839-0.853,7.492-1.943
			c5.981-1.414,9.058-2.936,12.296-6.089c1.555-1.522,2.958-3.249,5.139-6.348c1.846-2.613,2.192-3.174,2.138-3.476
			C389.868,215.416,389.695,215.524,388.832,216.258z"/>
		<path style="fill-rule:evenodd;clip-rule:evenodd;fill:#0F0B0D;" d="M100.934,218.644c-0.194,0.227-0.41,1.209-0.82,3.617
			c-0.594,3.476-0.745,4.998-0.756,7.525c-0.011,3.822,0.486,6.283,1.814,9.079c1.317,2.742,3.185,4.858,5.819,6.575
			c2.451,1.587,6.078,2.785,9.63,3.185c0.594,0.065,1.188,0.13,1.328,0.151c0.13,0.022,0.238,0.022,0.238,0
			c0-0.011-0.302-0.205-0.669-0.432c-4.469-2.688-7.838-5.808-10.213-9.468c-2.483-3.822-4.761-9.889-5.635-15.017
			c-0.119-0.702-0.281-2.202-0.345-3.314c-0.076-1.123-0.162-2.04-0.205-2.04S100.999,218.569,100.934,218.644z"/>
		<path style="fill-rule:evenodd;clip-rule:evenodd;fill:#0F0B0D;" d="M398.677,220.544c-0.065,1.112-0.227,2.613-0.345,3.314
			c-0.874,5.117-3.163,11.227-5.625,14.995c-2.397,3.692-5.754,6.801-10.213,9.489c-0.378,0.227-0.68,0.421-0.68,0.432
			c0,0.022,0.108,0.022,0.248,0c0.13-0.022,0.723-0.086,1.317-0.151c7.222-0.799,12.663-4.167,15.297-9.446
			c1.425-2.85,1.976-5.463,1.965-9.338c0-2.537-0.14-3.886-0.756-7.557c-0.486-2.936-0.712-3.778-1.004-3.778
			C398.839,218.504,398.753,219.421,398.677,220.544z"/>
		<path style="fill-rule:evenodd;clip-rule:evenodd;fill:#0F0B0D;" d="M51.112,225.651c3.908,3.94,4.772,5.106,7.319,9.91
			c1.695,3.196,2.947,4.88,4.75,6.326c2.278,1.846,4.998,3.023,10.094,4.361c3.109,0.82,4.189,1.166,4.944,1.576
			c0.367,0.194,0.669,0.335,0.669,0.313c0-0.032-0.367-0.907-0.81-1.943c-1.295-3.034-2.202-4.75-3.746-7.039
			c-3.077-4.599-8.118-8.68-14.822-11.962c-3.843-1.889-7.438-3.217-10.472-3.886C48.781,223.254,49.158,223.686,51.112,225.651z"/>
		<path style="fill-rule:evenodd;clip-rule:evenodd;fill:#0F0B0D;" d="M449.827,223.589c-4.966,1.285-11.4,4.286-15.783,7.363
			c-5.927,4.156-9.155,8.226-12.167,15.33c-0.421,1.004-0.766,1.835-0.766,1.857c0,0.032,0.302-0.119,0.68-0.313
			c0.745-0.41,1.824-0.756,4.934-1.576c6.046-1.598,8.842-2.947,11.368-5.538c1.188-1.209,2.191-2.721,3.724-5.592
			c1.425-2.667,2.138-3.832,3.163-5.182c1.101-1.447,1.252-1.609,3.908-4.286c1.317-1.317,2.343-2.397,2.289-2.397
			C451.112,223.265,450.507,223.405,449.827,223.589z"/>
		<path style="fill-rule:evenodd;clip-rule:evenodd;fill:#0F0B0D;" d="M66.421,256.58c-1.511,0.065-4.793,0.367-6.909,0.637
			c-5.754,0.734-10.947,1.76-15.438,3.055c-3.476,0.993-3.876,1.123-3.984,1.209c-0.194,0.173,0.518,0.432,2.796,0.993
			c2.688,0.669,4.243,1.209,7.276,2.526c4.394,1.9,5.678,2.321,7.762,2.537c1.986,0.205,4.135-0.076,6.359-0.842
			c1.922-0.659,3.638-1.533,7.319-3.714c5.668-3.357,7.838-4.264,11.217-4.685l0.982-0.13l-1.403-0.335
			C78.091,256.774,72.337,256.321,66.421,256.58z"/>
		<path style="fill-rule:evenodd;clip-rule:evenodd;fill:#0F0B0D;" d="M426.26,256.612c-3.217,0.173-6.002,0.561-8.658,1.22
			l-1.403,0.335l0.982,0.13c3.53,0.443,5.43,1.263,12.512,5.441c4.199,2.483,6.844,3.498,9.846,3.8c1.015,0.097,1.587,0.097,2.537,0
			c2.084-0.216,3.368-0.637,7.762-2.537c3.034-1.317,4.588-1.857,7.276-2.526c2.278-0.561,2.99-0.82,2.796-0.993
			c-0.108-0.086-0.518-0.216-3.93-1.198c-2.667-0.766-4.189-1.134-7.147-1.716c-4.124-0.82-8.421-1.436-12.393-1.792
			C434.184,256.569,428.646,256.483,426.26,256.612z"/>
		<path style="fill-rule:evenodd;clip-rule:evenodd;fill:#0F0B0D;" d="M65.395,271.197c-1.587,0.205-3.336,0.734-7.017,2.127
			c-2.98,1.134-4.469,1.533-6.618,1.76c-2.105,0.227-4.307-0.097-6.812-0.972c-0.842-0.291-2.224-0.777-3.088-1.08
			c-1.684-0.594-2.235-0.669-2.515-0.356c-0.421,0.464-0.453,0.432,2.677,2.397c4.156,2.623,7.438,3.94,11.443,4.599
			c1.609,0.27,5.117,0.27,6.801,0.011c2.818-0.443,5.786-1.306,8.529-2.472c0.831-0.356,3.325-1.576,5.549-2.71l4.038-2.073
			l-1.177-0.065c-1.393-0.086-2.213-0.205-4.923-0.702C69.044,271.078,67.273,270.96,65.395,271.197z"/>
		<path style="fill-rule:evenodd;clip-rule:evenodd;fill:#0F0B0D;" d="M430.557,271.186c-0.41,0.054-1.673,0.27-2.807,0.475
			c-2.742,0.497-3.563,0.615-4.955,0.702l-1.177,0.065l4.038,2.073c2.224,1.134,4.718,2.353,5.549,2.71
			c2.742,1.166,5.711,2.03,8.529,2.472c1.468,0.227,5.182,0.259,6.477,0.054c3.282-0.529,6.251-1.533,9.068-3.055
			c1.846-1.004,5.495-3.357,5.538-3.584c0.065-0.324-0.291-0.615-0.723-0.615c-0.216,0-1.09,0.248-1.954,0.551
			s-2.245,0.788-3.088,1.08c-2.159,0.756-3.401,0.993-5.387,0.993c-2.818,0.022-4.426-0.378-9.608-2.353
			c-3.239-1.241-4.621-1.555-7.017-1.619C432.09,271.111,430.978,271.132,430.557,271.186z"/>
		<path style="fill-rule:evenodd;clip-rule:evenodd;fill:#0F0B0D;" d="M143.253,287.574c-2.559,2.58-4.588,6.11-5.473,9.522
			c-0.626,2.407-0.734,5.279-0.399,9.77c0.335,4.297,0.367,5.214,0.238,7.201c-0.302,4.89-0.972,7.039-3.336,10.634
			c-1.069,1.63-1.08,1.652-0.777,1.652c0.918,0,5.15-3.789,7.233-6.477c2.461-3.174,3.8-6.1,4.448-9.781
			c0.205-1.166,0.248-1.77,0.248-3.714c0-3.131-0.205-4.491-1.339-8.744c-0.637-2.407-0.928-3.919-1.026-5.29
			c-0.14-1.835,0.27-3.908,1.036-5.268c0.173-0.302,0.291-0.561,0.248-0.561C144.322,286.516,143.825,286.991,143.253,287.574z"/>
		<path style="fill-rule:evenodd;clip-rule:evenodd;fill:#0F0B0D;" d="M355.894,287.067c0.766,1.371,1.177,3.433,1.047,5.279
			c-0.097,1.36-0.464,3.163-1.134,5.668c-1.004,3.714-1.393,6.596-1.274,9.338c0.227,4.826,1.803,8.917,4.977,12.847
			c2.105,2.613,6.121,6.154,6.985,6.154c0.302,0,0.291-0.022-0.777-1.652c-2.375-3.606-3.034-5.732-3.336-10.634
			c-0.13-1.986-0.097-2.904,0.238-7.201c0.497-6.553,0.065-9.705-1.857-13.613c-1.144-2.332-3.239-5.16-4.685-6.348l-0.518-0.421
			L355.894,287.067z"/>
		<path style="fill-rule:evenodd;clip-rule:evenodd;fill:#0F0B0D;" d="M119.017,287.218c-4.297,0.939-7.406,2.602-10.59,5.668
			c-0.648,0.626-2.31,2.397-3.681,3.94c-1.382,1.555-3.077,3.39-3.778,4.092c-2.904,2.904-5.905,5.063-9.77,7.017
			c-2.99,1.522-4.718,2.148-8.939,3.26c-1.177,0.313-1.932,0.551-1.868,0.615c0.184,0.184,3.919,0.507,6.542,0.572
			c6.283,0.162,11.713-0.777,15.686-2.71c5.096-2.483,8.561-6.24,13.03-14.142c2.785-4.923,4.199-7.287,4.88-8.129l0.367-0.453
			l-0.356,0.011C120.345,286.959,119.654,287.078,119.017,287.218z"/>
		<path style="fill-rule:evenodd;clip-rule:evenodd;fill:#0F0B0D;" d="M379.472,287.401c0.605,0.766,1.878,2.85,4.178,6.888
			c2.936,5.15,4.34,7.287,6.38,9.673c3.347,3.919,7.643,6.467,12.674,7.535c3.347,0.702,6.596,0.982,10.31,0.896
			c2.515-0.065,6.423-0.41,6.596-0.583c0.054-0.054-0.788-0.324-1.878-0.615c-4.297-1.144-5.948-1.749-8.928-3.26
			c-5.16-2.613-8.302-5.16-13.106-10.623c-5.257-5.97-7.848-7.978-12.123-9.381c-1.274-0.421-3.671-0.982-4.199-0.982h-0.27
			L379.472,287.401z"/>
		<path style="fill-rule:evenodd;clip-rule:evenodd;fill:#0F0B0D;" d="M63.344,295.034c-2.192,0.453-3.53,0.799-5.344,1.382
			c-3.455,1.112-9.058,3.671-13.192,6.035c-2.213,1.263-6.65,4.21-8.367,5.549c-1.123,0.874-4.685,4.189-4.599,4.275
			c0.022,0.022,0.648-0.162,1.382-0.399c2.699-0.853,3.93-1.112,8.453-1.77c5.722-0.842,7.87-1.36,10.051-2.472
			c3.152-1.609,5.732-3.897,9.533-8.464c1.177-1.403,2.58-3.012,3.131-3.563c0.551-0.54,0.982-0.993,0.972-0.982
			C65.352,294.624,64.445,294.807,63.344,295.034z"/>
		<path style="fill-rule:evenodd;clip-rule:evenodd;fill:#0F0B0D;" d="M435.631,295.628c0.54,0.54,1.932,2.138,3.109,3.541
			c3.832,4.61,6.499,6.963,9.63,8.507c2.245,1.101,4.275,1.598,9.954,2.429c4.523,0.659,5.765,0.918,8.442,1.781
			c0.745,0.227,1.36,0.41,1.382,0.389c0.054-0.043-2.634-2.645-3.53-3.411c-1.976-1.684-6.229-4.577-9.435-6.413
			c-3.8-2.192-8.982-4.599-12.415-5.776c-2.105-0.734-5.419-1.565-7.838-1.976C434.702,294.656,434.843,294.85,435.631,295.628z"/>
	</g>
</g>
</svg>
